<svg x="0" y="0" width="1280" height="701" version="1.1" xmlns="http://www.w3.org/2000/svg" xmlns:xlink="http://www.w3.org/1999/xlink"><g fill="none" stroke="none" stroke-width="1" stroke-linecap="butt" stroke-linejoin="miter" stroke-miterlimit="none" stroke-dasharray="" stroke-dashoffset="0" font-family="none" font-weight="none" font-size="none" text-anchor="none" mix-blend-mode="normal"><g stroke-miterlimit="10" font-family="sans-serif" font-weight="normal" font-size="12" text-anchor="start"/><g id="svg" fill="none" stroke="none" stroke-miterlimit="4" font-family="Times" font-weight="normal" font-size="16" text-anchor="start"><path d="M390.7508,93.61092c1.66913,14.65129 -30.78626,40.61561 -36.90642,47.84853c14.83675,0 30.04443,12.98216 26.33524,28.74621c-2.78189,11.12756 -14.28037,21.51329 -22.81151,28.56075c-8.90205,7.41838 -17.43319,13.724 -31.5281,20.02962c-2.78189,1.29822 -34.86637,13.90946 -44.69572,10.57119c-18.7314,-6.862 -10.57119,-25.96432 -7.97475,-41.91383c2.41097,-15.02221 3.70919,-29.85897 6.67654,-44.88118c1.48368,-7.41838 4.82194,-17.61864 4.08011,-25.22248c-0.55638,-5.0074 -5.56378,-8.16021 -5.37832,-14.09492c1.11276,-19.10232 33.38269,-34.86637 48.40491,-38.94648c24.10972,-7.23292 63.79804,-2.96735 63.79804,29.30259z M344.01502,167.23831c-10.38573,0 -26.89162,0.9273 -35.23729,7.60384c-10.75665,8.53113 -8.71659,18.17502 -10.57119,30.78626c13.35308,-5.0074 23.18243,-10.57119 34.12453,-19.6587c7.04746,-5.9347 15.02221,-11.31302 21.51329,-17.8041c-3.33827,-0.74184 -6.49108,-0.9273 -9.82935,-0.9273z M327.32368,96.20735c-17.61864,11.8694 -18.54594,29.48805 -17.24773,40.43015c23.73881,-1.48368 56.75058,-25.22248 51.00134,-33.75361c-4.45103,-6.30562 -19.84416,-16.13497 -33.75361,-6.67654z M469.94197,229.73813c-39.3174,7.97475 -81.7876,-21.88421 -76.7802,-63.9835c4.45103,-37.09188 28.00437,-75.48198 63.79804,-88.09322c24.29518,-8.53113 33.75361,1.29822 50.63042,18.36048c7.41838,7.41838 19.10232,39.13194 17.61864,56.75058c-2.22551,28.93167 -21.88421,70.28912 -55.26691,76.96566z M500.91369,148.87783c0,-17.06227 -16.87681,-48.03399 -37.09188,-40.61561c-21.69875,7.7893 -38.76102,44.13934 -40.61561,65.83809c-2.04005,24.10972 21.51329,31.5281 41.91383,26.14978c21.51329,-5.74924 35.79367,-30.22988 35.79367,-51.37226z M694.90424,103.25481c-1.66913,9.82935 -2.59643,18.91686 -3.33827,28.74621c-1.29822,16.87681 -4.26557,34.12453 -7.41838,50.63042c-3.15281,15.76405 -5.19286,21.51329 -19.10232,29.11713c-10.57119,5.74924 -17.43319,16.69135 -29.67351,7.04746c-8.34567,-6.49108 -16.32043,-19.28778 -21.69875,-28.00437c-10.01481,-16.13497 -16.32043,-33.56815 -25.03702,-50.44496c-6.67654,24.29518 -10.94211,50.63042 -19.28778,74.36923c-5.74924,16.32043 -25.96432,33.19724 -28.18983,6.30562c-2.04005,-25.5934 10.75665,-56.37966 15.57859,-81.60214c2.59643,-13.724 4.82194,-71.21642 30.22988,-62.87074c13.16762,4.26557 18.17502,24.10972 23.55335,34.68091c6.30562,12.42578 10.38573,25.5934 16.32043,38.20464c5.56378,11.68394 15.76405,45.2521 22.44059,19.84416c8.71659,-33.56815 13.90946,-67.69269 22.25513,-101.26084c2.41097,-9.45843 3.70919,-23.92426 12.7967,-29.85897c15.02221,-9.64389 15.57859,5.19286 14.83675,16.69135c-1.66913,18.91686 -1.66913,32.82632 -4.26557,48.40491z M857.36668,103.25481c-1.66913,9.82935 -2.59643,18.91686 -3.33827,28.74621c-1.29822,16.87681 -4.26557,34.12453 -7.41838,50.63042c-3.15281,15.76405 -5.19286,21.51329 -19.10232,29.11713c-10.57119,5.74924 -17.43319,16.69135 -29.67351,7.04746c-8.34567,-6.49108 -16.32043,-19.28778 -21.69875,-28.00437c-10.01481,-16.13497 -16.32043,-33.56815 -25.03702,-50.44496c-6.67654,24.29518 -10.94211,50.63042 -19.28778,74.36923c-5.74924,16.32043 -25.96432,33.19724 -28.18983,6.30562c-2.04005,-25.5934 10.75665,-56.37966 15.57859,-81.60214c2.59643,-13.724 4.82194,-71.21642 30.22988,-62.87074c13.16762,4.26557 18.17502,24.10972 23.55335,34.68091c6.30562,12.42578 10.38573,25.5934 16.32043,38.20464c5.56378,11.68394 15.76405,45.2521 22.44059,19.84416c8.71659,-33.56815 13.90946,-67.69269 22.25513,-101.26084c2.41097,-9.45843 3.70919,-23.92426 12.7967,-29.85897c15.02221,-9.64389 16.50589,5.37832 14.83675,16.69135c-4.45103,29.48805 -1.48368,32.82632 -4.26557,48.40491z M1010.92708,76.3632c0,7.7893 -38.01918,14.46583 -44.88118,15.94951c-14.28037,3.15281 -21.14237,1.11276 -32.64086,10.38573c-9.27297,7.60384 -16.50589,15.39313 -19.47324,27.44799c9.45843,-0.55638 49.14674,-5.19286 52.48501,3.70919c6.49108,17.24773 -31.89902,20.21508 -41.72837,21.51329c-17.61864,2.59643 -32.64086,20.02962 -14.83675,32.4554c7.97475,5.56378 14.09492,4.82194 24.10972,2.78189c7.7893,-1.48368 19.47324,-7.97475 22.99697,1.29822c8.71659,22.81151 -31.71356,31.5281 -45.2521,29.67351c-22.25513,-2.96735 -31.71356,-20.40054 -35.23729,-40.61561c-2.04005,-10.94211 -1.48368,-20.95691 0.37092,-31.89902c2.04005,-12.42578 11.12756,-27.26253 10.75665,-39.50286c-0.18546,-9.64389 -4.08011,-14.46583 3.15281,-24.10972c4.45103,-5.74924 13.35308,-17.98956 19.47324,-20.02962c12.61124,-4.26557 100.70446,-2.41097 100.70446,10.94211z"/><path d="M380.17961,262.56445c0,23.55335 -7.41838,51.1868 -7.7893,71.40187c-0.18546,11.8694 2.04005,69.9182 0.74184,76.59474c-3.33827,16.13497 -12.98216,28.00437 -19.47324,5.9347c-3.52373,-11.49848 -1.11276,-40.43015 -9.64389,-48.96129c-4.45103,-4.63649 -25.77886,-3.33827 -30.41534,0c-6.67654,4.82194 -7.23292,17.06227 -10.01481,26.5207c-2.04005,9.08751 -25.40794,51.92864 -33.75361,16.87681c-2.96735,-12.42578 5.9347,-28.00437 10.20027,-39.50286c3.89465,-10.20027 22.25513,-59.34701 26.70616,-68.24906c7.60384,-15.39313 14.28037,-30.78626 21.14237,-46.55031c4.45103,-10.01481 10.38573,-26.33524 22.81151,-28.37529c19.10232,-3.15281 29.48805,18.91686 29.48805,34.30999z M348.65151,302.25276c-0.37092,-9.45843 -0.74184,-18.91686 -1.11276,-28.56075c-7.97475,19.47324 -18.17502,38.94648 -22.99697,59.53247c8.34567,0 18.36048,2.04005 21.69875,-4.26557c3.33827,-6.12016 2.41097,-20.02962 2.41097,-26.70616z M550.06043,282.03769c-1.66913,10.20027 -2.78189,19.84416 -3.52373,30.04443c-1.29822,17.61864 -4.45103,35.60821 -7.7893,52.85593c-3.15281,16.32043 -5.37832,22.44059 -19.84416,30.22988c-11.12756,6.12016 -18.17502,17.43319 -30.97172,7.23292c-8.71659,-6.862 -16.87681,-20.21508 -22.62605,-29.30259c-10.38573,-16.69135 -17.06227,-35.05183 -26.14978,-52.48501c-6.862,25.40794 -11.49848,52.85593 -20.02962,77.52204c-5.9347,17.06227 -27.07707,34.68091 -29.48805,6.67654c-2.22551,-26.70616 11.12756,-58.79063 16.13497,-85.12587c2.78189,-14.28037 5.0074,-74.18377 31.5281,-65.65263c13.724,4.45103 18.91686,25.22248 24.48064,36.16459c6.49108,12.98216 10.75665,26.70616 17.06227,39.87377c5.9347,12.24032 16.50589,47.10669 23.36789,20.77145c9.27297,-34.86637 14.46583,-70.47458 23.18243,-105.71187c2.41097,-9.82935 3.89465,-25.03702 13.35308,-30.97172c15.57859,-10.01481 17.24773,5.56378 15.39313,17.43319c-2.04005,13.90946 -1.11276,34.12453 -4.08011,50.44496z M719.57034,282.03769c-1.66913,10.20027 -2.78189,19.84416 -3.52373,30.04443c-1.29822,17.61864 -4.45103,35.60821 -7.7893,52.85593c-3.15281,16.32043 -5.37832,22.44059 -19.84416,30.22988c-11.12756,6.12016 -18.17502,17.43319 -30.97172,7.23292c-8.71659,-6.862 -16.87681,-20.21508 -22.62605,-29.30259c-10.38573,-16.69135 -17.06227,-35.05183 -26.14978,-52.48501c-6.862,25.40794 -11.49848,52.85593 -20.02962,77.52204c-5.9347,17.06227 -27.07707,34.68091 -29.48805,6.67654c-2.22551,-26.70616 11.12756,-58.79063 16.13497,-85.12587c2.78189,-14.28037 5.0074,-74.18377 31.5281,-65.65263c13.724,4.45103 18.91686,25.22248 24.48064,36.16459c6.49108,12.98216 10.75665,26.70616 17.06227,39.87377c5.9347,12.24032 16.50589,47.10669 23.36789,20.77145c9.27297,-34.86637 14.46583,-70.47458 23.18243,-105.71187c2.41097,-9.82935 3.89465,-25.03702 13.35308,-30.97172c15.57859,-10.01481 17.06227,5.56378 15.39313,17.43319c-2.22551,18.54594 -1.29822,34.12453 -4.08011,50.44496z M879.62181,254.03331c0,8.16021 -39.68831,15.20767 -46.92123,16.69135c-14.83675,3.15281 -22.06967,1.29822 -33.93907,10.94211c-9.82935,7.97475 -17.24773,15.94951 -20.21508,28.74621c9.82935,-0.55638 51.1868,-5.37832 54.71053,3.89465c6.862,17.98956 -33.38269,20.95691 -43.58296,22.44059c-18.54594,2.59643 -34.12453,20.95691 -15.39313,33.93907c8.34567,5.74924 14.65129,5.0074 25.03702,2.96735c8.16021,-1.66913 20.21508,-8.34567 23.92426,1.29822c9.08751,23.73881 -33.01178,32.82632 -47.10669,30.97172c-23.18243,-2.96735 -33.01178,-21.14237 -36.72096,-42.47021c-2.04005,-11.31302 -1.48368,-21.88421 0.37092,-33.19724c2.22551,-12.98216 11.49848,-28.37529 11.12756,-41.35745c-0.18546,-10.01481 -4.26557,-15.20767 3.15281,-25.03702c4.63649,-6.12016 13.90946,-18.7314 20.40054,-20.95691c13.35308,-4.63649 105.15549,-2.78189 105.15549,11.12756z M867.75241,190.04982c-2.59643,4.45103 -7.60384,14.46583 -12.61124,19.84416c-9.08751,9.82935 -27.44799,24.48064 -42.09929,17.61864c-20.02962,-9.27297 1.48368,-28.00437 11.12756,-34.68091c8.53113,-5.9347 20.21508,-13.16762 31.15718,-13.53854c5.0074,-0.18546 17.98956,3.15281 12.42578,10.75665z M1010.92708,254.03331c0,8.16021 -39.68831,15.20767 -46.92123,16.69135c-14.83675,3.15281 -22.06967,1.29822 -33.93907,10.94211c-9.82935,7.97475 -17.24773,15.94951 -20.21508,28.74621c9.82935,-0.55638 51.1868,-5.37832 54.71053,3.89465c6.862,17.98956 -33.38269,20.95691 -43.58296,22.44059c-18.54594,2.59643 -34.12453,20.95691 -15.39313,33.93907c8.34567,5.74924 14.65129,5.0074 25.03702,2.96735c8.16021,-1.66913 20.21508,-8.34567 23.92426,1.29822c9.08751,23.73881 -33.01178,32.82632 -47.10669,30.97172c-23.18243,-2.96735 -33.01178,-21.14237 -36.72096,-42.47021c-2.04005,-11.31302 -1.48368,-21.88421 0.37092,-33.19724c2.22551,-12.98216 11.49848,-28.37529 11.12756,-41.35745c-0.18546,-10.01481 -4.26557,-15.20767 3.15281,-25.03702c4.63649,-6.12016 13.90946,-18.7314 20.40054,-20.95691c13.35308,-4.63649 105.15549,-2.78189 105.15549,11.12756z"/><path d="M507.21931,584.70745c-1.85459,1.85459 -63.61258,16.87681 -80.48939,20.02962c-25.77886,4.82194 -76.03836,12.42578 -101.63176,18.17502c-13.90946,3.15281 -39.13194,9.64389 -50.07404,-4.26557c-7.97475,-10.01481 -7.04746,-33.75361 -2.41097,-44.88118c4.26557,-10.75665 13.35308,-19.47324 21.32783,-27.81891c15.39313,-16.32043 31.71356,-31.89902 47.47761,-47.84853c9.82935,-9.82935 19.10232,-19.84416 28.18983,-30.41534c6.67654,-7.60384 28.37529,-27.07707 28.37529,-38.20464c0.18546,-17.43319 -40.24469,2.04005 -47.84853,5.56378c-10.94211,5.0074 -48.21945,21.32783 -48.21945,-6.67654c-5.56378,-21.69875 54.89599,-41.54291 70.66004,-46.17939c24.29518,-7.04746 69.36182,-9.45843 75.11106,23.55335c12.98216,73.07101 -59.53247,114.79938 -101.4463,160.79331c10.01481,-5.0074 28.37529,-4.26557 39.13194,-5.19286c13.35308,-1.11276 26.14978,-1.29822 39.3174,-1.48368c14.46583,-0.18546 28.00437,-1.85459 42.47021,-2.22551c8.90205,-0.55638 50.07404,9.08751 40.05923,27.07707z M700.46802,518.12752c0,43.95388 -24.10972,84.75495 -62.68528,105.71187c-42.09929,22.99697 -94.76976,5.19286 -113.50116,-39.87377c-17.98956,-43.21204 3.33827,-91.80241 22.62605,-130.19251c7.41838,-14.83675 23.55335,-24.29518 38.01918,-34.12453c7.7893,-5.19286 36.16459,-18.91686 51.92864,-13.724c19.6587,6.67654 33.75361,18.91686 42.28475,35.23729c12.61124,24.6661 21.32783,48.59037 21.32783,76.96566z M657.99781,486.04304c-6.49108,-17.24773 -24.85156,-17.06227 -29.48805,-17.24773c-12.61124,-0.37092 -26.5207,12.05486 -36.35005,19.84416c-21.14237,16.87681 -37.83372,46.73577 -31.71356,74.55468c5.56378,25.96432 34.30999,11.8694 48.77583,4.82194c31.15718,-14.65129 61.38707,-48.59037 48.77583,-81.97306z M865.89782,404.4409c1.29822,22.99697 -16.50589,44.88118 -27.26253,63.0562c-12.61124,20.77145 -20.40054,48.03399 -25.5934,72.32917c-4.26557,20.02962 -9.64389,38.94648 -15.57859,58.79063c-5.9347,19.6587 -9.45843,49.51766 -27.26253,61.38707c-6.67654,4.45103 -17.43319,9.82935 -24.29518,1.85459c-8.90205,-10.38573 1.85459,-39.87377 3.89465,-51.55772c8.16021,-49.51766 17.61864,-98.84987 29.85897,-147.62569c-10.57119,10.75665 -27.07707,15.39313 -41.91383,17.24773c-17.06227,2.04005 -26.5207,-9.08751 -16.69135,-25.22248c11.49848,-18.91686 99.40625,-90.68965 124.25781,-82.90036c13.90946,3.89465 19.10232,19.84416 20.586,32.64086z M1010.92708,382.74215c-0.37092,11.12756 -27.63345,41.17199 -35.79367,49.3322c-11.31302,11.68394 -26.5207,38.94648 -34.68091,52.85593c17.06227,2.41097 58.0488,18.36048 41.91383,82.34398c-4.63649,18.91686 -14.46583,31.34264 -28.56075,44.51026c-28.37529,26.33524 -80.8603,45.43756 -98.84987,-3.15281c-20.02962,-54.52507 23.92426,-122.95959 56.37966,-164.31704c17.24773,-22.06967 35.79367,-42.84112 57.49242,-60.45977c10.38573,-8.34567 42.09929,-30.22988 42.09929,-1.11276z M932.47775,571.72529c2.78189,-11.49848 8.34567,-34.86637 -2.78189,-43.58296c-19.10232,-15.20767 -27.07707,22.44059 -29.30259,33.19724c-1.48368,6.862 -7.7893,32.82632 -1.85459,38.20464c9.08751,7.60384 30.41534,-20.21508 33.93907,-27.81891z"/></g><path d="M-106,-100c0,-3.31371 2.68629,-6 6,-6c3.31371,0 6,2.68629 6,6c0,3.31371 -2.68629,6 -6,6c-3.31371,0 -6,-2.68629 -6,-6z" stroke-miterlimit="10" font-family="sans-serif" font-weight="normal" font-size="12" text-anchor="start"/><path d="M0,0l0,0" stroke-miterlimit="10" font-family="sans-serif" font-weight="normal" font-size="12" text-anchor="start"/><g stroke-miterlimit="10"><g fill="#ff0000"><g><path d="M384.7508,93.61092c0,-3.31371 2.68629,-6 6,-6c3.31371,0 6,2.68629 6,6c0,3.31371 -2.68629,6 -6,6c-3.31371,0 -6,-2.68629 -6,-6z" font-family="sans-serif" font-weight="normal" font-size="12" text-anchor="start" opacity="0.3"/><text x="400.7508" y="103.61092" transform="" font-family="Arial" font-weight="700" font-size="10" text-anchor="middle">1</text></g><g><path d="M347.84437,141.45945c0,-3.31371 2.68629,-6 6,-6c3.31371,0 6,2.68629 6,6c0,3.31371 -2.68629,6 -6,6c-3.31371,0 -6,-2.68629 -6,-6z" font-family="sans-serif" font-weight="normal" font-size="12" text-anchor="start" opacity="0.3"/><text x="363.84437" y="151.45945" transform="" font-family="Arial" font-weight="700" font-size="10" text-anchor="middle">2</text></g><g><path d="M374.17961,170.20566c0,-3.31371 2.68629,-6 6,-6c3.31371,0 6,2.68629 6,6c0,3.31371 -2.68629,6 -6,6c-3.31371,0 -6,-2.68629 -6,-6z" font-family="sans-serif" font-weight="normal" font-size="12" text-anchor="start" opacity="0.3"/><text x="390.17961" y="180.20566" transform="" font-family="Arial" font-weight="700" font-size="10" text-anchor="middle">3</text></g><g><path d="M351.3681,198.76641c0,-3.31371 2.68629,-6 6,-6c3.31371,0 6,2.68629 6,6c0,3.31371 -2.68629,6 -6,6c-3.31371,0 -6,-2.68629 -6,-6z" font-family="sans-serif" font-weight="normal" font-size="12" text-anchor="start" opacity="0.3"/><text x="367.3681" y="208.76641" font-family="Arial" font-weight="700" font-size="10" text-anchor="middle">4</text></g><g><path d="M319.84,218.79603c0,-3.31371 2.68629,-6 6,-6c3.31371,0 6,2.68629 6,6c0,3.31371 -2.68629,6 -6,6c-3.31371,0 -6,-2.68629 -6,-6z" font-family="sans-serif" font-weight="normal" font-size="12" text-anchor="start" opacity="0.3"/><text x="335.84" y="228.79603" font-family="Arial" font-weight="700" font-size="10" text-anchor="middle">5</text></g><g><path d="M275.14428,229.36721c0,-3.31371 2.68629,-6 6,-6c3.31371,0 6,2.68629 6,6c0,3.31371 -2.68629,6 -6,6c-3.31371,0 -6,-2.68629 -6,-6z" font-family="sans-serif" font-weight="normal" font-size="12" text-anchor="start" opacity="0.3"/><text x="291.14428" y="239.36721" font-family="Arial" font-weight="700" font-size="10" text-anchor="middle">6</text></g><g><path d="M267.16953,187.45338c0,-3.31371 2.68629,-6 6,-6c3.31371,0 6,2.68629 6,6c0,3.31371 -2.68629,6 -6,6c-3.31371,0 -6,-2.68629 -6,-6z" font-family="sans-serif" font-weight="normal" font-size="12" text-anchor="start" opacity="0.3"/><text x="283.16953" y="197.45338" transform="" font-family="Arial" font-weight="700" font-size="10" text-anchor="middle">7</text></g><g><path d="M273.84607,142.57221c0,-3.31371 2.68629,-6 6,-6c3.31371,0 6,2.68629 6,6c0,3.31371 -2.68629,6 -6,6c-3.31371,0 -6,-2.68629 -6,-6z" font-family="sans-serif" font-weight="normal" font-size="12" text-anchor="start" opacity="0.3"/><text x="289.84607" y="152.57221" transform="" font-family="Arial" font-weight="700" font-size="10" text-anchor="middle">8</text></g><g><path d="M277.92617,117.34973c0,-3.31371 2.68629,-6 6,-6c3.31371,0 6,2.68629 6,6c0,3.31371 -2.68629,6 -6,6c-3.31371,0 -6,-2.68629 -6,-6z" font-family="sans-serif" font-weight="normal" font-size="12" text-anchor="start" opacity="0.3"/><text x="293.92617" y="127.34973" transform="" font-family="Arial" font-weight="700" font-size="10" text-anchor="middle">9</text></g><g><path d="M272.54785,103.25481c0,-3.31371 2.68629,-6 6,-6c3.31371,0 6,2.68629 6,6c0,3.31371 -2.68629,6 -6,6c-3.31371,0 -6,-2.68629 -6,-6z" font-family="sans-serif" font-weight="normal" font-size="12" text-anchor="start" opacity="0.3"/><text x="288.54785" y="113.25481" transform="" font-family="Arial" font-weight="700" font-size="10" text-anchor="middle">10</text></g><g><path d="M320.95276,64.30833c0,-3.31371 2.68629,-6 6,-6c3.31371,0 6,2.68629 6,6c0,3.31371 -2.68629,6 -6,6c-3.31371,0 -6,-2.68629 -6,-6z" font-family="sans-serif" font-weight="normal" font-size="12" text-anchor="start" opacity="0.3"/><text x="336.95276" y="74.30833" font-family="Arial" font-weight="700" font-size="10" text-anchor="middle">11</text></g></g><g fill="#ff7f00"><g><path d="M338.01502,167.23831c0,-3.31371 2.68629,-6 6,-6c3.31371,0 6,2.68629 6,6c0,3.31371 -2.68629,6 -6,6c-3.31371,0 -6,-2.68629 -6,-6z" font-family="sans-serif" font-weight="normal" font-size="12" text-anchor="start" opacity="0.3"/><text x="354.01502" y="177.23831" transform="" font-family="Arial" font-weight="700" font-size="10" text-anchor="middle">1</text></g><g><path d="M302.77773,174.84214c0,-3.31371 2.68629,-6 6,-6c3.31371,0 6,2.68629 6,6c0,3.31371 -2.68629,6 -6,6c-3.31371,0 -6,-2.68629 -6,-6z" font-family="sans-serif" font-weight="normal" font-size="12" text-anchor="start" opacity="0.3"/><text x="318.77773" y="184.84214" transform="" font-family="Arial" font-weight="700" font-size="10" text-anchor="middle">2</text></g><g><path d="M292.20655,205.62841c0,-3.31371 2.68629,-6 6,-6c3.31371,0 6,2.68629 6,6c0,3.31371 -2.68629,6 -6,6c-3.31371,0 -6,-2.68629 -6,-6z" font-family="sans-serif" font-weight="normal" font-size="12" text-anchor="start" opacity="0.3"/><text x="308.20655" y="215.62841" transform="" font-family="Arial" font-weight="700" font-size="10" text-anchor="middle">3</text></g><g><path d="M326.33108,185.96971c0,-3.31371 2.68629,-6 6,-6c3.31371,0 6,2.68629 6,6c0,3.31371 -2.68629,6 -6,6c-3.31371,0 -6,-2.68629 -6,-6z" font-family="sans-serif" font-weight="normal" font-size="12" text-anchor="start" opacity="0.3"/><text x="342.33108" y="195.96971" transform="" font-family="Arial" font-weight="700" font-size="10" text-anchor="middle">4</text></g><g><path d="M347.84437,168.16561c0,-3.31371 2.68629,-6 6,-6c3.31371,0 6,2.68629 6,6c0,3.31371 -2.68629,6 -6,6c-3.31371,0 -6,-2.68629 -6,-6z" font-family="sans-serif" font-weight="normal" font-size="12" text-anchor="start" opacity="0.3"/><text x="363.84437" y="178.16561" font-family="Arial" font-weight="700" font-size="10" text-anchor="middle">5</text></g></g><g fill="#ff7f00"><g><path d="M321.32368,96.20735c0,-3.31371 2.68629,-6 6,-6c3.31371,0 6,2.68629 6,6c0,3.31371 -2.68629,6 -6,6c-3.31371,0 -6,-2.68629 -6,-6z" font-family="sans-serif" font-weight="normal" font-size="12" text-anchor="start" opacity="0.3"/><text x="337.32368" y="106.20735" transform="" font-family="Arial" font-weight="700" font-size="10" text-anchor="middle">1</text></g><g><path d="M304.07595,136.63751c0,-3.31371 2.68629,-6 6,-6c3.31371,0 6,2.68629 6,6c0,3.31371 -2.68629,6 -6,6c-3.31371,0 -6,-2.68629 -6,-6z" font-family="sans-serif" font-weight="normal" font-size="12" text-anchor="start" opacity="0.3"/><text x="320.07595" y="146.63751" transform="" font-family="Arial" font-weight="700" font-size="10" text-anchor="middle">2</text></g><g><path d="M355.07729,102.88389c0,-3.31371 2.68629,-6 6,-6c3.31371,0 6,2.68629 6,6c0,3.31371 -2.68629,6 -6,6c-3.31371,0 -6,-2.68629 -6,-6z" font-family="sans-serif" font-weight="normal" font-size="12" text-anchor="start" opacity="0.3"/><text x="371.07729" y="112.88389" font-family="Arial" font-weight="700" font-size="10" text-anchor="middle">3</text></g></g><g fill="#007fff"><g><path d="M463.94197,229.73813c0,-3.31371 2.68629,-6 6,-6c3.31371,0 6,2.68629 6,6c0,3.31371 -2.68629,6 -6,6c-3.31371,0 -6,-2.68629 -6,-6z" font-family="sans-serif" font-weight="normal" font-size="12" text-anchor="start" opacity="0.3"/><text x="479.94197" y="239.73813" transform="" font-family="Arial" font-weight="700" font-size="10" text-anchor="middle">1</text></g><g><path d="M387.16177,165.75463c0,-3.31371 2.68629,-6 6,-6c3.31371,0 6,2.68629 6,6c0,3.31371 -2.68629,6 -6,6c-3.31371,0 -6,-2.68629 -6,-6z" font-family="sans-serif" font-weight="normal" font-size="12" text-anchor="start" opacity="0.3"/><text x="403.16177" y="175.75463" transform="" font-family="Arial" font-weight="700" font-size="10" text-anchor="middle">2</text></g><g><path d="M450.95981,77.66141c0,-3.31371 2.68629,-6 6,-6c3.31371,0 6,2.68629 6,6c0,3.31371 -2.68629,6 -6,6c-3.31371,0 -6,-2.68629 -6,-6z" font-family="sans-serif" font-weight="normal" font-size="12" text-anchor="start" opacity="0.3"/><text x="466.95981" y="87.66141" font-family="Arial" font-weight="700" font-size="10" text-anchor="middle">3</text></g><g><path d="M501.59023,96.02189c0,-3.31371 2.68629,-6 6,-6c3.31371,0 6,2.68629 6,6c0,3.31371 -2.68629,6 -6,6c-3.31371,0 -6,-2.68629 -6,-6z" font-family="sans-serif" font-weight="normal" font-size="12" text-anchor="start" opacity="0.3"/><text x="517.59023" y="106.02189" transform="" font-family="Arial" font-weight="700" font-size="10" text-anchor="middle">4</text></g><g><path d="M519.20887,152.77247c0,-3.31371 2.68629,-6 6,-6c3.31371,0 6,2.68629 6,6c0,3.31371 -2.68629,6 -6,6c-3.31371,0 -6,-2.68629 -6,-6z" font-family="sans-serif" font-weight="normal" font-size="12" text-anchor="start" opacity="0.3"/><text x="535.20887" y="162.77247" font-family="Arial" font-weight="700" font-size="10" text-anchor="middle">5</text></g></g><g fill="#ff0000"><g><path d="M494.91369,148.87783c0,-3.31371 2.68629,-6 6,-6c3.31371,0 6,2.68629 6,6c0,3.31371 -2.68629,6 -6,6c-3.31371,0 -6,-2.68629 -6,-6z" font-family="sans-serif" font-weight="normal" font-size="12" text-anchor="start" opacity="0.3"/><text x="510.91369" y="158.87783" transform="" font-family="Arial" font-weight="700" font-size="10" text-anchor="middle">1</text></g><g><path d="M457.82181,108.26221c0,-3.31371 2.68629,-6 6,-6c3.31371,0 6,2.68629 6,6c0,3.31371 -2.68629,6 -6,6c-3.31371,0 -6,-2.68629 -6,-6z" font-family="sans-serif" font-weight="normal" font-size="12" text-anchor="start" opacity="0.3"/><text x="473.82181" y="118.26221" transform="" font-family="Arial" font-weight="700" font-size="10" text-anchor="middle">2</text></g><g><path d="M417.20619,174.10031c0,-3.31371 2.68629,-6 6,-6c3.31371,0 6,2.68629 6,6c0,3.31371 -2.68629,6 -6,6c-3.31371,0 -6,-2.68629 -6,-6z" font-family="sans-serif" font-weight="normal" font-size="12" text-anchor="start" opacity="0.3"/><text x="433.20619" y="184.10031" transform="" font-family="Arial" font-weight="700" font-size="10" text-anchor="middle">3</text></g><g><path d="M459.12002,200.25008c0,-3.31371 2.68629,-6 6,-6c3.31371,0 6,2.68629 6,6c0,3.31371 -2.68629,6 -6,6c-3.31371,0 -6,-2.68629 -6,-6z" font-family="sans-serif" font-weight="normal" font-size="12" text-anchor="start" opacity="0.3"/><text x="475.12002" y="210.25008" font-family="Arial" font-weight="700" font-size="10" text-anchor="middle">4</text></g></g><g fill="#ff7f00"><g><path d="M688.90424,103.25481c0,-3.31371 2.68629,-6 6,-6c3.31371,0 6,2.68629 6,6c0,3.31371 -2.68629,6 -6,6c-3.31371,0 -6,-2.68629 -6,-6z" font-family="sans-serif" font-weight="normal" font-size="12" text-anchor="start" opacity="0.3"/><text x="704.90424" y="113.25481" font-family="Arial" font-weight="700" font-size="10" text-anchor="middle">1</text></g><g><path d="M685.56597,132.00102c0,-3.31371 2.68629,-6 6,-6c3.31371,0 6,2.68629 6,6c0,3.31371 -2.68629,6 -6,6c-3.31371,0 -6,-2.68629 -6,-6z" font-family="sans-serif" font-weight="normal" font-size="12" text-anchor="start" opacity="0.3"/><text x="701.56597" y="142.00102" transform="" font-family="Arial" font-weight="700" font-size="10" text-anchor="middle">2</text></g><g><path d="M678.14759,182.63144c0,-3.31371 2.68629,-6 6,-6c3.31371,0 6,2.68629 6,6c0,3.31371 -2.68629,6 -6,6c-3.31371,0 -6,-2.68629 -6,-6z" font-family="sans-serif" font-weight="normal" font-size="12" text-anchor="start" opacity="0.3"/><text x="694.14759" y="192.63144" transform="" font-family="Arial" font-weight="700" font-size="10" text-anchor="middle">3</text></g><g><path d="M659.04527,211.74857c0,-3.31371 2.68629,-6 6,-6c3.31371,0 6,2.68629 6,6c0,3.31371 -2.68629,6 -6,6c-3.31371,0 -6,-2.68629 -6,-6z" font-family="sans-serif" font-weight="normal" font-size="12" text-anchor="start" opacity="0.3"/><text x="675.04527" y="221.74857" font-family="Arial" font-weight="700" font-size="10" text-anchor="middle">4</text></g><g><path d="M629.37176,218.79603c0,-3.31371 2.68629,-6 6,-6c3.31371,0 6,2.68629 6,6c0,3.31371 -2.68629,6 -6,6c-3.31371,0 -6,-2.68629 -6,-6z" font-family="sans-serif" font-weight="normal" font-size="12" text-anchor="start" opacity="0.3"/><text x="645.37176" y="228.79603" transform="" font-family="Arial" font-weight="700" font-size="10" text-anchor="middle">5</text></g><g><path d="M607.67301,190.79165c0,-3.31371 2.68629,-6 6,-6c3.31371,0 6,2.68629 6,6c0,3.31371 -2.68629,6 -6,6c-3.31371,0 -6,-2.68629 -6,-6z" font-family="sans-serif" font-weight="normal" font-size="12" text-anchor="start" opacity="0.3"/><text x="623.67301" y="200.79165" transform="" font-family="Arial" font-weight="700" font-size="10" text-anchor="middle">6</text></g><g><path d="M582.63599,140.34669c0,-3.31371 2.68629,-6 6,-6c3.31371,0 6,2.68629 6,6c0,3.31371 -2.68629,6 -6,6c-3.31371,0 -6,-2.68629 -6,-6z" font-family="sans-serif" font-weight="normal" font-size="12" text-anchor="start" opacity="0.3"/><text x="598.63599" y="150.34669" transform="" font-family="Arial" font-weight="700" font-size="10" text-anchor="middle">7</text></g><g><path d="M563.34821,214.71592c0,-3.31371 2.68629,-6 6,-6c3.31371,0 6,2.68629 6,6c0,3.31371 -2.68629,6 -6,6c-3.31371,0 -6,-2.68629 -6,-6z" font-family="sans-serif" font-weight="normal" font-size="12" text-anchor="start" opacity="0.3"/><text x="579.34821" y="224.71592" transform="" font-family="Arial" font-weight="700" font-size="10" text-anchor="middle">8</text></g><g><path d="M535.15838,221.02154c0,-3.31371 2.68629,-6 6,-6c3.31371,0 6,2.68629 6,6c0,3.31371 -2.68629,6 -6,6c-3.31371,0 -6,-2.68629 -6,-6z" font-family="sans-serif" font-weight="normal" font-size="12" text-anchor="start" opacity="0.3"/><text x="551.15838" y="231.02154" font-family="Arial" font-weight="700" font-size="10" text-anchor="middle">9</text></g><g><path d="M550.73697,139.4194c0,-3.31371 2.68629,-6 6,-6c3.31371,0 6,2.68629 6,6c0,3.31371 -2.68629,6 -6,6c-3.31371,0 -6,-2.68629 -6,-6z" font-family="sans-serif" font-weight="normal" font-size="12" text-anchor="start" opacity="0.3"/><text x="566.73697" y="149.4194" font-family="Arial" font-weight="700" font-size="10" text-anchor="middle">10</text></g><g><path d="M580.96686,76.54865c0,-3.31371 2.68629,-6 6,-6c3.31371,0 6,2.68629 6,6c0,3.31371 -2.68629,6 -6,6c-3.31371,0 -6,-2.68629 -6,-6z" font-family="sans-serif" font-weight="normal" font-size="12" text-anchor="start" opacity="0.3"/><text x="596.96686" y="86.54865" font-family="Arial" font-weight="700" font-size="10" text-anchor="middle">11</text></g><g><path d="M604.5202,111.22957c0,-3.31371 2.68629,-6 6,-6c3.31371,0 6,2.68629 6,6c0,3.31371 -2.68629,6 -6,6c-3.31371,0 -6,-2.68629 -6,-6z" font-family="sans-serif" font-weight="normal" font-size="12" text-anchor="start" opacity="0.3"/><text x="620.5202" y="121.22957" transform="" font-family="Arial" font-weight="700" font-size="10" text-anchor="middle">12</text></g><g><path d="M620.84063,149.4342c0,-3.31371 2.68629,-6 6,-6c3.31371,0 6,2.68629 6,6c0,3.31371 -2.68629,6 -6,6c-3.31371,0 -6,-2.68629 -6,-6z" font-family="sans-serif" font-weight="normal" font-size="12" text-anchor="start" opacity="0.3"/><text x="636.84063" y="159.4342" font-family="Arial" font-weight="700" font-size="10" text-anchor="middle">13</text></g><g><path d="M643.28122,169.27836c0,-3.31371 2.68629,-6 6,-6c3.31371,0 6,2.68629 6,6c0,3.31371 -2.68629,6 -6,6c-3.31371,0 -6,-2.68629 -6,-6z" font-family="sans-serif" font-weight="normal" font-size="12" text-anchor="start" opacity="0.3"/><text x="659.28122" y="179.27836" transform="" font-family="Arial" font-weight="700" font-size="10" text-anchor="middle">14</text></g><g><path d="M665.53635,68.01752c0,-3.31371 2.68629,-6 6,-6c3.31371,0 6,2.68629 6,6c0,3.31371 -2.68629,6 -6,6c-3.31371,0 -6,-2.68629 -6,-6z" font-family="sans-serif" font-weight="normal" font-size="12" text-anchor="start" opacity="0.3"/><text x="681.53635" y="78.01752" transform="" font-family="Arial" font-weight="700" font-size="10" text-anchor="middle">15</text></g><g><path d="M678.33305,38.15856c0,-3.31371 2.68629,-6 6,-6c3.31371,0 6,2.68629 6,6c0,3.31371 -2.68629,6 -6,6c-3.31371,0 -6,-2.68629 -6,-6z" font-family="sans-serif" font-weight="normal" font-size="12" text-anchor="start" opacity="0.3"/><text x="694.33305" y="48.15856" font-family="Arial" font-weight="700" font-size="10" text-anchor="middle">16</text></g><g><path d="M693.1698,54.8499c0,-3.31371 2.68629,-6 6,-6c3.31371,0 6,2.68629 6,6c0,3.31371 -2.68629,6 -6,6c-3.31371,0 -6,-2.68629 -6,-6z" font-family="sans-serif" font-weight="normal" font-size="12" text-anchor="start" opacity="0.3"/><text x="709.1698" y="64.8499" transform="" font-family="Arial" font-weight="700" font-size="10" text-anchor="middle">17</text></g></g><g fill="#ff7f00"><g><path d="M851.36668,103.25481c0,-3.31371 2.68629,-6 6,-6c3.31371,0 6,2.68629 6,6c0,3.31371 -2.68629,6 -6,6c-3.31371,0 -6,-2.68629 -6,-6z" font-family="sans-serif" font-weight="normal" font-size="12" text-anchor="start" opacity="0.3"/><text x="867.36668" y="113.25481" transform="" font-family="Arial" font-weight="700" font-size="10" text-anchor="middle">1</text></g><g><path d="M848.02841,132.00102c0,-3.31371 2.68629,-6 6,-6c3.31371,0 6,2.68629 6,6c0,3.31371 -2.68629,6 -6,6c-3.31371,0 -6,-2.68629 -6,-6z" font-family="sans-serif" font-weight="normal" font-size="12" text-anchor="start" opacity="0.3"/><text x="864.02841" y="142.00102" transform="" font-family="Arial" font-weight="700" font-size="10" text-anchor="middle">2</text></g><g><path d="M840.61004,182.63144c0,-3.31371 2.68629,-6 6,-6c3.31371,0 6,2.68629 6,6c0,3.31371 -2.68629,6 -6,6c-3.31371,0 -6,-2.68629 -6,-6z" font-family="sans-serif" font-weight="normal" font-size="12" text-anchor="start" opacity="0.3"/><text x="856.61004" y="192.63144" transform="" font-family="Arial" font-weight="700" font-size="10" text-anchor="middle">3</text></g><g><path d="M821.50772,211.74857c0,-3.31371 2.68629,-6 6,-6c3.31371,0 6,2.68629 6,6c0,3.31371 -2.68629,6 -6,6c-3.31371,0 -6,-2.68629 -6,-6z" font-family="sans-serif" font-weight="normal" font-size="12" text-anchor="start" opacity="0.3"/><text x="837.50772" y="221.74857" transform="" font-family="Arial" font-weight="700" font-size="10" text-anchor="middle">4</text></g><g><path d="M791.83421,218.79603c0,-3.31371 2.68629,-6 6,-6c3.31371,0 6,2.68629 6,6c0,3.31371 -2.68629,6 -6,6c-3.31371,0 -6,-2.68629 -6,-6z" font-family="sans-serif" font-weight="normal" font-size="12" text-anchor="start" opacity="0.3"/><text x="807.83421" y="228.79603" transform="" font-family="Arial" font-weight="700" font-size="10" text-anchor="middle">5</text></g><g><path d="M770.13546,190.79165c0,-3.31371 2.68629,-6 6,-6c3.31371,0 6,2.68629 6,6c0,3.31371 -2.68629,6 -6,6c-3.31371,0 -6,-2.68629 -6,-6z" font-family="sans-serif" font-weight="normal" font-size="12" text-anchor="start" opacity="0.3"/><text x="786.13546" y="200.79165" transform="" font-family="Arial" font-weight="700" font-size="10" text-anchor="middle">6</text></g><g><path d="M745.09844,140.34669c0,-3.31371 2.68629,-6 6,-6c3.31371,0 6,2.68629 6,6c0,3.31371 -2.68629,6 -6,6c-3.31371,0 -6,-2.68629 -6,-6z" font-family="sans-serif" font-weight="normal" font-size="12" text-anchor="start" opacity="0.3"/><text x="761.09844" y="150.34669" transform="" font-family="Arial" font-weight="700" font-size="10" text-anchor="middle">7</text></g><g><path d="M725.81066,214.71592c0,-3.31371 2.68629,-6 6,-6c3.31371,0 6,2.68629 6,6c0,3.31371 -2.68629,6 -6,6c-3.31371,0 -6,-2.68629 -6,-6z" font-family="sans-serif" font-weight="normal" font-size="12" text-anchor="start" opacity="0.3"/><text x="741.81066" y="224.71592" transform="" font-family="Arial" font-weight="700" font-size="10" text-anchor="middle">8</text></g><g><path d="M697.62083,221.02154c0,-3.31371 2.68629,-6 6,-6c3.31371,0 6,2.68629 6,6c0,3.31371 -2.68629,6 -6,6c-3.31371,0 -6,-2.68629 -6,-6z" font-family="sans-serif" font-weight="normal" font-size="12" text-anchor="start" opacity="0.3"/><text x="713.62083" y="231.02154" transform="" font-family="Arial" font-weight="700" font-size="10" text-anchor="middle">9</text></g><g><path d="M713.19942,139.4194c0,-3.31371 2.68629,-6 6,-6c3.31371,0 6,2.68629 6,6c0,3.31371 -2.68629,6 -6,6c-3.31371,0 -6,-2.68629 -6,-6z" font-family="sans-serif" font-weight="normal" font-size="12" text-anchor="start" opacity="0.3"/><text x="729.19942" y="149.4194" font-family="Arial" font-weight="700" font-size="10" text-anchor="middle">10</text></g><g><path d="M743.4293,76.54865c0,-3.31371 2.68629,-6 6,-6c3.31371,0 6,2.68629 6,6c0,3.31371 -2.68629,6 -6,6c-3.31371,0 -6,-2.68629 -6,-6z" font-family="sans-serif" font-weight="normal" font-size="12" text-anchor="start" opacity="0.3"/><text x="759.4293" y="86.54865" transform="" font-family="Arial" font-weight="700" font-size="10" text-anchor="middle">11</text></g><g><path d="M766.98265,111.22957c0,-3.31371 2.68629,-6 6,-6c3.31371,0 6,2.68629 6,6c0,3.31371 -2.68629,6 -6,6c-3.31371,0 -6,-2.68629 -6,-6z" font-family="sans-serif" font-weight="normal" font-size="12" text-anchor="start" opacity="0.3"/><text x="782.98265" y="121.22957" transform="" font-family="Arial" font-weight="700" font-size="10" text-anchor="middle">12</text></g><g><path d="M783.30308,149.4342c0,-3.31371 2.68629,-6 6,-6c3.31371,0 6,2.68629 6,6c0,3.31371 -2.68629,6 -6,6c-3.31371,0 -6,-2.68629 -6,-6z" font-family="sans-serif" font-weight="normal" font-size="12" text-anchor="start" opacity="0.3"/><text x="799.30308" y="159.4342" transform="" font-family="Arial" font-weight="700" font-size="10" text-anchor="middle">13</text></g><g><path d="M805.74367,169.27836c0,-3.31371 2.68629,-6 6,-6c3.31371,0 6,2.68629 6,6c0,3.31371 -2.68629,6 -6,6c-3.31371,0 -6,-2.68629 -6,-6z" font-family="sans-serif" font-weight="normal" font-size="12" text-anchor="start" opacity="0.3"/><text x="821.74367" y="179.27836" transform="" font-family="Arial" font-weight="700" font-size="10" text-anchor="middle">14</text></g><g><path d="M827.9988,68.01752c0,-3.31371 2.68629,-6 6,-6c3.31371,0 6,2.68629 6,6c0,3.31371 -2.68629,6 -6,6c-3.31371,0 -6,-2.68629 -6,-6z" font-family="sans-serif" font-weight="normal" font-size="12" text-anchor="start" opacity="0.3"/><text x="843.9988" y="78.01752" font-family="Arial" font-weight="700" font-size="10" text-anchor="middle">15</text></g><g><path d="M840.7955,38.15856c0,-3.31371 2.68629,-6 6,-6c3.31371,0 6,2.68629 6,6c0,3.31371 -2.68629,6 -6,6c-3.31371,0 -6,-2.68629 -6,-6z" font-family="sans-serif" font-weight="normal" font-size="12" text-anchor="start" opacity="0.3"/><text x="856.7955" y="48.15856" transform="" font-family="Arial" font-weight="700" font-size="10" text-anchor="middle">16</text></g><g><path d="M855.63225,54.8499c0,-3.31371 2.68629,-6 6,-6c3.31371,0 6,2.68629 6,6c0,3.31371 -2.68629,6 -6,6c-3.31371,0 -6,-2.68629 -6,-6z" font-family="sans-serif" font-weight="normal" font-size="12" text-anchor="start" opacity="0.3"/><text x="871.63225" y="64.8499" transform="" font-family="Arial" font-weight="700" font-size="10" text-anchor="middle">17</text></g></g><g fill="#007fff"><g><path d="M1004.92708,76.3632c0,-3.31371 2.68629,-6 6,-6c3.31371,0 6,2.68629 6,6c0,3.31371 -2.68629,6 -6,6c-3.31371,0 -6,-2.68629 -6,-6z" font-family="sans-serif" font-weight="normal" font-size="12" text-anchor="start" opacity="0.3"/><text x="1020.92708" y="86.3632" transform="" font-family="Arial" font-weight="700" font-size="10" text-anchor="middle">1</text></g><g><path d="M960.0459,92.31271c0,-3.31371 2.68629,-6 6,-6c3.31371,0 6,2.68629 6,6c0,3.31371 -2.68629,6 -6,6c-3.31371,0 -6,-2.68629 -6,-6z" font-family="sans-serif" font-weight="normal" font-size="12" text-anchor="start" opacity="0.3"/><text x="976.0459" y="102.31271" transform="" font-family="Arial" font-weight="700" font-size="10" text-anchor="middle">2</text></g><g><path d="M927.40504,102.69843c0,-3.31371 2.68629,-6 6,-6c3.31371,0 6,2.68629 6,6c0,3.31371 -2.68629,6 -6,6c-3.31371,0 -6,-2.68629 -6,-6z" font-family="sans-serif" font-weight="normal" font-size="12" text-anchor="start" opacity="0.3"/><text x="943.40504" y="112.69843" transform="" font-family="Arial" font-weight="700" font-size="10" text-anchor="middle">3</text></g><g><path d="M907.93181,130.14643c0,-3.31371 2.68629,-6 6,-6c3.31371,0 6,2.68629 6,6c0,3.31371 -2.68629,6 -6,6c-3.31371,0 -6,-2.68629 -6,-6z" font-family="sans-serif" font-weight="normal" font-size="12" text-anchor="start" opacity="0.3"/><text x="923.93181" y="140.14643" transform="" font-family="Arial" font-weight="700" font-size="10" text-anchor="middle">4</text></g><g><path d="M960.41682,133.85561c0,-3.31371 2.68629,-6 6,-6c3.31371,0 6,2.68629 6,6c0,3.31371 -2.68629,6 -6,6c-3.31371,0 -6,-2.68629 -6,-6z" font-family="sans-serif" font-weight="normal" font-size="12" text-anchor="start" opacity="0.3"/><text x="976.41682" y="143.85561" transform="" font-family="Arial" font-weight="700" font-size="10" text-anchor="middle">5</text></g><g><path d="M918.68845,155.36891c0,-3.31371 2.68629,-6 6,-6c3.31371,0 6,2.68629 6,6c0,3.31371 -2.68629,6 -6,6c-3.31371,0 -6,-2.68629 -6,-6z" font-family="sans-serif" font-weight="normal" font-size="12" text-anchor="start" opacity="0.3"/><text x="934.68845" y="165.36891" transform="" font-family="Arial" font-weight="700" font-size="10" text-anchor="middle">6</text></g><g><path d="M903.8517,187.8243c0,-3.31371 2.68629,-6 6,-6c3.31371,0 6,2.68629 6,6c0,3.31371 -2.68629,6 -6,6c-3.31371,0 -6,-2.68629 -6,-6z" font-family="sans-serif" font-weight="normal" font-size="12" text-anchor="start" opacity="0.3"/><text x="919.8517" y="197.8243" transform="" font-family="Arial" font-weight="700" font-size="10" text-anchor="middle">7</text></g><g><path d="M927.96142,190.6062c0,-3.31371 2.68629,-6 6,-6c3.31371,0 6,2.68629 6,6c0,3.31371 -2.68629,6 -6,6c-3.31371,0 -6,-2.68629 -6,-6z" font-family="sans-serif" font-weight="normal" font-size="12" text-anchor="start" opacity="0.3"/><text x="943.96142" y="200.6062" font-family="Arial" font-weight="700" font-size="10" text-anchor="middle">8</text></g><g><path d="M950.95839,191.90441c0,-3.31371 2.68629,-6 6,-6c3.31371,0 6,2.68629 6,6c0,3.31371 -2.68629,6 -6,6c-3.31371,0 -6,-2.68629 -6,-6z" font-family="sans-serif" font-weight="normal" font-size="12" text-anchor="start" opacity="0.3"/><text x="966.95839" y="201.90441" font-family="Arial" font-weight="700" font-size="10" text-anchor="middle">9</text></g><g><path d="M905.70629,221.57792c0,-3.31371 2.68629,-6 6,-6c3.31371,0 6,2.68629 6,6c0,3.31371 -2.68629,6 -6,6c-3.31371,0 -6,-2.68629 -6,-6z" font-family="sans-serif" font-weight="normal" font-size="12" text-anchor="start" opacity="0.3"/><text x="921.70629" y="231.57792" transform="" font-family="Arial" font-weight="700" font-size="10" text-anchor="middle">10</text></g><g><path d="M870.469,180.96231c0,-3.31371 2.68629,-6 6,-6c3.31371,0 6,2.68629 6,6c0,3.31371 -2.68629,6 -6,6c-3.31371,0 -6,-2.68629 -6,-6z" font-family="sans-serif" font-weight="normal" font-size="12" text-anchor="start" opacity="0.3"/><text x="886.469" y="190.96231" font-family="Arial" font-weight="700" font-size="10" text-anchor="middle">11</text></g><g><path d="M870.83992,149.06329c0,-3.31371 2.68629,-6 6,-6c3.31371,0 6,2.68629 6,6c0,3.31371 -2.68629,6 -6,6c-3.31371,0 -6,-2.68629 -6,-6z" font-family="sans-serif" font-weight="normal" font-size="12" text-anchor="start" opacity="0.3"/><text x="886.83992" y="159.06329" transform="" font-family="Arial" font-weight="700" font-size="10" text-anchor="middle">12</text></g><g><path d="M881.59657,109.56043c0,-3.31371 2.68629,-6 6,-6c3.31371,0 6,2.68629 6,6c0,3.31371 -2.68629,6 -6,6c-3.31371,0 -6,-2.68629 -6,-6z" font-family="sans-serif" font-weight="normal" font-size="12" text-anchor="start" opacity="0.3"/><text x="897.59657" y="119.56043" font-family="Arial" font-weight="700" font-size="10" text-anchor="middle">13</text></g><g><path d="M884.74938,85.45071c0,-3.31371 2.68629,-6 6,-6c3.31371,0 6,2.68629 6,6c0,3.31371 -2.68629,6 -6,6c-3.31371,0 -6,-2.68629 -6,-6z" font-family="sans-serif" font-weight="normal" font-size="12" text-anchor="start" opacity="0.3"/><text x="900.74938" y="95.45071" font-family="Arial" font-weight="700" font-size="10" text-anchor="middle">14</text></g><g><path d="M904.22262,65.42109c0,-3.31371 2.68629,-6 6,-6c3.31371,0 6,2.68629 6,6c0,3.31371 -2.68629,6 -6,6c-3.31371,0 -6,-2.68629 -6,-6z" font-family="sans-serif" font-weight="normal" font-size="12" text-anchor="start" opacity="0.3"/><text x="920.22262" y="75.42109" transform="" font-family="Arial" font-weight="700" font-size="10" text-anchor="middle">15</text></g></g></g><g stroke-miterlimit="10"><g fill="#ff0000"><g><path d="M374.17961,262.56445c0,-3.31371 2.68629,-6 6,-6c3.31371,0 6,2.68629 6,6c0,3.31371 -2.68629,6 -6,6c-3.31371,0 -6,-2.68629 -6,-6z" font-family="sans-serif" font-weight="normal" font-size="12" text-anchor="start" opacity="0.3"/><text x="390.17961" y="272.56445" transform="" font-family="Arial" font-weight="700" font-size="10" text-anchor="middle">1</text></g><g><path d="M366.39031,333.96632c0,-3.31371 2.68629,-6 6,-6c3.31371,0 6,2.68629 6,6c0,3.31371 -2.68629,6 -6,6c-3.31371,0 -6,-2.68629 -6,-6z" font-family="sans-serif" font-weight="normal" font-size="12" text-anchor="start" opacity="0.3"/><text x="382.39031" y="343.96632" transform="" font-family="Arial" font-weight="700" font-size="10" text-anchor="middle">2</text></g><g><path d="M367.13215,410.56106c0,-3.31371 2.68629,-6 6,-6c3.31371,0 6,2.68629 6,6c0,3.31371 -2.68629,6 -6,6c-3.31371,0 -6,-2.68629 -6,-6z" font-family="sans-serif" font-weight="normal" font-size="12" text-anchor="start" opacity="0.3"/><text x="383.13215" y="420.56106" transform="" font-family="Arial" font-weight="700" font-size="10" text-anchor="middle">3</text></g><g><path d="M347.65891,416.49576c0,-3.31371 2.68629,-6 6,-6c3.31371,0 6,2.68629 6,6c0,3.31371 -2.68629,6 -6,6c-3.31371,0 -6,-2.68629 -6,-6z" font-family="sans-serif" font-weight="normal" font-size="12" text-anchor="start" opacity="0.3"/><text x="363.65891" y="426.49576" transform="" font-family="Arial" font-weight="700" font-size="10" text-anchor="middle">4</text></g><g><path d="M338.01502,367.53448c0,-3.31371 2.68629,-6 6,-6c3.31371,0 6,2.68629 6,6c0,3.31371 -2.68629,6 -6,6c-3.31371,0 -6,-2.68629 -6,-6z" font-family="sans-serif" font-weight="normal" font-size="12" text-anchor="start" opacity="0.3"/><text x="354.01502" y="377.53448" transform="" font-family="Arial" font-weight="700" font-size="10" text-anchor="middle">5</text></g><g><path d="M307.59968,367.53448c0,-3.31371 2.68629,-6 6,-6c3.31371,0 6,2.68629 6,6c0,3.31371 -2.68629,6 -6,6c-3.31371,0 -6,-2.68629 -6,-6z" font-family="sans-serif" font-weight="normal" font-size="12" text-anchor="start" opacity="0.3"/><text x="323.59968" y="377.53448" font-family="Arial" font-weight="700" font-size="10" text-anchor="middle">6</text></g><g><path d="M297.58487,394.05517c0,-3.31371 2.68629,-6 6,-6c3.31371,0 6,2.68629 6,6c0,3.31371 -2.68629,6 -6,6c-3.31371,0 -6,-2.68629 -6,-6z" font-family="sans-serif" font-weight="normal" font-size="12" text-anchor="start" opacity="0.3"/><text x="313.58487" y="404.05517" transform="" font-family="Arial" font-weight="700" font-size="10" text-anchor="middle">7</text></g><g><path d="M263.83126,410.93198c0,-3.31371 2.68629,-6 6,-6c3.31371,0 6,2.68629 6,6c0,3.31371 -2.68629,6 -6,6c-3.31371,0 -6,-2.68629 -6,-6z" font-family="sans-serif" font-weight="normal" font-size="12" text-anchor="start" opacity="0.3"/><text x="279.83126" y="420.93198" transform="" font-family="Arial" font-weight="700" font-size="10" text-anchor="middle">8</text></g><g><path d="M274.03152,371.42912c0,-3.31371 2.68629,-6 6,-6c3.31371,0 6,2.68629 6,6c0,3.31371 -2.68629,6 -6,6c-3.31371,0 -6,-2.68629 -6,-6z" font-family="sans-serif" font-weight="normal" font-size="12" text-anchor="start" opacity="0.3"/><text x="290.03152" y="381.42912" transform="" font-family="Arial" font-weight="700" font-size="10" text-anchor="middle">9</text></g><g><path d="M300.73768,303.18006c0,-3.31371 2.68629,-6 6,-6c3.31371,0 6,2.68629 6,6c0,3.31371 -2.68629,6 -6,6c-3.31371,0 -6,-2.68629 -6,-6z" font-family="sans-serif" font-weight="normal" font-size="12" text-anchor="start" opacity="0.3"/><text x="316.73768" y="313.18006" transform="" font-family="Arial" font-weight="700" font-size="10" text-anchor="middle">10</text></g><g><path d="M321.88005,256.62975c0,-3.31371 2.68629,-6 6,-6c3.31371,0 6,2.68629 6,6c0,3.31371 -2.68629,6 -6,6c-3.31371,0 -6,-2.68629 -6,-6z" font-family="sans-serif" font-weight="normal" font-size="12" text-anchor="start" opacity="0.3"/><text x="337.88005" y="266.62975" transform="" font-family="Arial" font-weight="700" font-size="10" text-anchor="middle">11</text></g><g><path d="M344.69156,228.25446c0,-3.31371 2.68629,-6 6,-6c3.31371,0 6,2.68629 6,6c0,3.31371 -2.68629,6 -6,6c-3.31371,0 -6,-2.68629 -6,-6z" font-family="sans-serif" font-weight="normal" font-size="12" text-anchor="start" opacity="0.3"/><text x="360.69156" y="238.25446" transform="" font-family="Arial" font-weight="700" font-size="10" text-anchor="middle">12</text></g></g><g fill="#ff7f00"><g><path d="M342.65151,302.25276c0,-3.31371 2.68629,-6 6,-6c3.31371,0 6,2.68629 6,6c0,3.31371 -2.68629,6 -6,6c-3.31371,0 -6,-2.68629 -6,-6z" font-family="sans-serif" font-weight="normal" font-size="12" text-anchor="start" opacity="0.3"/><text x="358.65151" y="312.25276" transform="" font-family="Arial" font-weight="700" font-size="10" text-anchor="middle">1</text></g><g><path d="M341.53875,273.69201c0,-3.31371 2.68629,-6 6,-6c3.31371,0 6,2.68629 6,6c0,3.31371 -2.68629,6 -6,6c-3.31371,0 -6,-2.68629 -6,-6z" font-family="sans-serif" font-weight="normal" font-size="12" text-anchor="start" opacity="0.3"/><text x="357.53875" y="283.69201" transform="" font-family="Arial" font-weight="700" font-size="10" text-anchor="middle">2</text></g><g><path d="M318.54178,333.22449c0,-3.31371 2.68629,-6 6,-6c3.31371,0 6,2.68629 6,6c0,3.31371 -2.68629,6 -6,6c-3.31371,0 -6,-2.68629 -6,-6z" font-family="sans-serif" font-weight="normal" font-size="12" text-anchor="start" opacity="0.3"/><text x="334.54178" y="343.22449" transform="" font-family="Arial" font-weight="700" font-size="10" text-anchor="middle">3</text></g><g><path d="M340.24054,328.95892c0,-3.31371 2.68629,-6 6,-6c3.31371,0 6,2.68629 6,6c0,3.31371 -2.68629,6 -6,6c-3.31371,0 -6,-2.68629 -6,-6z" font-family="sans-serif" font-weight="normal" font-size="12" text-anchor="start" opacity="0.3"/><text x="356.24054" y="338.95892" transform="" font-family="Arial" font-weight="700" font-size="10" text-anchor="middle">4</text></g></g><g fill="#ff7f00"><g><path d="M544.06043,282.03769c0,-3.31371 2.68629,-6 6,-6c3.31371,0 6,2.68629 6,6c0,3.31371 -2.68629,6 -6,6c-3.31371,0 -6,-2.68629 -6,-6z" font-family="sans-serif" font-weight="normal" font-size="12" text-anchor="start" opacity="0.3"/><text x="560.06043" y="292.03769" transform="" font-family="Arial" font-weight="700" font-size="10" text-anchor="middle">1</text></g><g><path d="M540.5367,312.08211c0,-3.31371 2.68629,-6 6,-6c3.31371,0 6,2.68629 6,6c0,3.31371 -2.68629,6 -6,6c-3.31371,0 -6,-2.68629 -6,-6z" font-family="sans-serif" font-weight="normal" font-size="12" text-anchor="start" opacity="0.3"/><text x="556.5367" y="322.08211" transform="" font-family="Arial" font-weight="700" font-size="10" text-anchor="middle">2</text></g><g><path d="M532.74741,364.93805c0,-3.31371 2.68629,-6 6,-6c3.31371,0 6,2.68629 6,6c0,3.31371 -2.68629,6 -6,6c-3.31371,0 -6,-2.68629 -6,-6z" font-family="sans-serif" font-weight="normal" font-size="12" text-anchor="start" opacity="0.3"/><text x="548.74741" y="374.93805" transform="" font-family="Arial" font-weight="700" font-size="10" text-anchor="middle">3</text></g><g><path d="M512.90325,395.16793c0,-3.31371 2.68629,-6 6,-6c3.31371,0 6,2.68629 6,6c0,3.31371 -2.68629,6 -6,6c-3.31371,0 -6,-2.68629 -6,-6z" font-family="sans-serif" font-weight="normal" font-size="12" text-anchor="start" opacity="0.3"/><text x="528.90325" y="405.16793" font-family="Arial" font-weight="700" font-size="10" text-anchor="middle">4</text></g><g><path d="M481.93153,402.40085c0,-3.31371 2.68629,-6 6,-6c3.31371,0 6,2.68629 6,6c0,3.31371 -2.68629,6 -6,6c-3.31371,0 -6,-2.68629 -6,-6z" font-family="sans-serif" font-weight="normal" font-size="12" text-anchor="start" opacity="0.3"/><text x="497.93153" y="412.40085" transform="" font-family="Arial" font-weight="700" font-size="10" text-anchor="middle">5</text></g><g><path d="M459.30548,373.09826c0,-3.31371 2.68629,-6 6,-6c3.31371,0 6,2.68629 6,6c0,3.31371 -2.68629,6 -6,6c-3.31371,0 -6,-2.68629 -6,-6z" font-family="sans-serif" font-weight="normal" font-size="12" text-anchor="start" opacity="0.3"/><text x="475.30548" y="383.09826" font-family="Arial" font-weight="700" font-size="10" text-anchor="middle">6</text></g><g><path d="M433.1557,320.61324c0,-3.31371 2.68629,-6 6,-6c3.31371,0 6,2.68629 6,6c0,3.31371 -2.68629,6 -6,6c-3.31371,0 -6,-2.68629 -6,-6z" font-family="sans-serif" font-weight="normal" font-size="12" text-anchor="start" opacity="0.3"/><text x="449.1557" y="330.61324" transform="" font-family="Arial" font-weight="700" font-size="10" text-anchor="middle">7</text></g><g><path d="M413.12609,398.13528c0,-3.31371 2.68629,-6 6,-6c3.31371,0 6,2.68629 6,6c0,3.31371 -2.68629,6 -6,6c-3.31371,0 -6,-2.68629 -6,-6z" font-family="sans-serif" font-weight="normal" font-size="12" text-anchor="start" opacity="0.3"/><text x="429.12609" y="408.13528" transform="" font-family="Arial" font-weight="700" font-size="10" text-anchor="middle">8</text></g><g><path d="M383.63804,404.81182c0,-3.31371 2.68629,-6 6,-6c3.31371,0 6,2.68629 6,6c0,3.31371 -2.68629,6 -6,6c-3.31371,0 -6,-2.68629 -6,-6z" font-family="sans-serif" font-weight="normal" font-size="12" text-anchor="start" opacity="0.3"/><text x="399.63804" y="414.81182" transform="" font-family="Arial" font-weight="700" font-size="10" text-anchor="middle">9</text></g><g><path d="M399.77301,319.68595c0,-3.31371 2.68629,-6 6,-6c3.31371,0 6,2.68629 6,6c0,3.31371 -2.68629,6 -6,6c-3.31371,0 -6,-2.68629 -6,-6z" font-family="sans-serif" font-weight="normal" font-size="12" text-anchor="start" opacity="0.3"/><text x="415.77301" y="329.68595" transform="" font-family="Arial" font-weight="700" font-size="10" text-anchor="middle">10</text></g><g><path d="M431.30111,254.03331c0,-3.31371 2.68629,-6 6,-6c3.31371,0 6,2.68629 6,6c0,3.31371 -2.68629,6 -6,6c-3.31371,0 -6,-2.68629 -6,-6z" font-family="sans-serif" font-weight="normal" font-size="12" text-anchor="start" opacity="0.3"/><text x="447.30111" y="264.03331" transform="" font-family="Arial" font-weight="700" font-size="10" text-anchor="middle">11</text></g><g><path d="M455.78175,290.1979c0,-3.31371 2.68629,-6 6,-6c3.31371,0 6,2.68629 6,6c0,3.31371 -2.68629,6 -6,6c-3.31371,0 -6,-2.68629 -6,-6z" font-family="sans-serif" font-weight="normal" font-size="12" text-anchor="start" opacity="0.3"/><text x="471.78175" y="300.1979" transform="" font-family="Arial" font-weight="700" font-size="10" text-anchor="middle">12</text></g><g><path d="M472.84402,330.07168c0,-3.31371 2.68629,-6 6,-6c3.31371,0 6,2.68629 6,6c0,3.31371 -2.68629,6 -6,6c-3.31371,0 -6,-2.68629 -6,-6z" font-family="sans-serif" font-weight="normal" font-size="12" text-anchor="start" opacity="0.3"/><text x="488.84402" y="340.07168" transform="" font-family="Arial" font-weight="700" font-size="10" text-anchor="middle">13</text></g><g><path d="M496.2119,350.84313c0,-3.31371 2.68629,-6 6,-6c3.31371,0 6,2.68629 6,6c0,3.31371 -2.68629,6 -6,6c-3.31371,0 -6,-2.68629 -6,-6z" font-family="sans-serif" font-weight="normal" font-size="12" text-anchor="start" opacity="0.3"/><text x="512.2119" y="360.84313" transform="" font-family="Arial" font-weight="700" font-size="10" text-anchor="middle">14</text></g><g><path d="M519.39433,245.13126c0,-3.31371 2.68629,-6 6,-6c3.31371,0 6,2.68629 6,6c0,3.31371 -2.68629,6 -6,6c-3.31371,0 -6,-2.68629 -6,-6z" font-family="sans-serif" font-weight="normal" font-size="12" text-anchor="start" opacity="0.3"/><text x="535.39433" y="255.13126" transform="" font-family="Arial" font-weight="700" font-size="10" text-anchor="middle">15</text></g><g><path d="M532.74741,214.15954c0,-3.31371 2.68629,-6 6,-6c3.31371,0 6,2.68629 6,6c0,3.31371 -2.68629,6 -6,6c-3.31371,0 -6,-2.68629 -6,-6z" font-family="sans-serif" font-weight="normal" font-size="12" text-anchor="start" opacity="0.3"/><text x="548.74741" y="224.15954" transform="" font-family="Arial" font-weight="700" font-size="10" text-anchor="middle">16</text></g><g><path d="M548.14054,231.59273c0,-3.31371 2.68629,-6 6,-6c3.31371,0 6,2.68629 6,6c0,3.31371 -2.68629,6 -6,6c-3.31371,0 -6,-2.68629 -6,-6z" font-family="sans-serif" font-weight="normal" font-size="12" text-anchor="start" opacity="0.3"/><text x="564.14054" y="241.59273" transform="" font-family="Arial" font-weight="700" font-size="10" text-anchor="middle">17</text></g></g><g fill="#007fff"><g><path d="M713.57034,282.03769c0,-3.31371 2.68629,-6 6,-6c3.31371,0 6,2.68629 6,6c0,3.31371 -2.68629,6 -6,6c-3.31371,0 -6,-2.68629 -6,-6z" font-family="sans-serif" font-weight="normal" font-size="12" text-anchor="start" opacity="0.3"/><text x="729.57034" y="292.03769" transform="" font-family="Arial" font-weight="700" font-size="10" text-anchor="middle">1</text></g><g><path d="M710.04661,312.08211c0,-3.31371 2.68629,-6 6,-6c3.31371,0 6,2.68629 6,6c0,3.31371 -2.68629,6 -6,6c-3.31371,0 -6,-2.68629 -6,-6z" font-family="sans-serif" font-weight="normal" font-size="12" text-anchor="start" opacity="0.3"/><text x="726.04661" y="322.08211" font-family="Arial" font-weight="700" font-size="10" text-anchor="middle">2</text></g><g><path d="M702.25731,364.93805c0,-3.31371 2.68629,-6 6,-6c3.31371,0 6,2.68629 6,6c0,3.31371 -2.68629,6 -6,6c-3.31371,0 -6,-2.68629 -6,-6z" font-family="sans-serif" font-weight="normal" font-size="12" text-anchor="start" opacity="0.3"/><text x="718.25731" y="374.93805" font-family="Arial" font-weight="700" font-size="10" text-anchor="middle">3</text></g><g><path d="M682.41316,395.16793c0,-3.31371 2.68629,-6 6,-6c3.31371,0 6,2.68629 6,6c0,3.31371 -2.68629,6 -6,6c-3.31371,0 -6,-2.68629 -6,-6z" font-family="sans-serif" font-weight="normal" font-size="12" text-anchor="start" opacity="0.3"/><text x="698.41316" y="405.16793" transform="" font-family="Arial" font-weight="700" font-size="10" text-anchor="middle">4</text></g><g><path d="M651.44143,402.40085c0,-3.31371 2.68629,-6 6,-6c3.31371,0 6,2.68629 6,6c0,3.31371 -2.68629,6 -6,6c-3.31371,0 -6,-2.68629 -6,-6z" font-family="sans-serif" font-weight="normal" font-size="12" text-anchor="start" opacity="0.3"/><text x="667.44143" y="412.40085" transform="" font-family="Arial" font-weight="700" font-size="10" text-anchor="middle">5</text></g><g><path d="M628.81539,373.09826c0,-3.31371 2.68629,-6 6,-6c3.31371,0 6,2.68629 6,6c0,3.31371 -2.68629,6 -6,6c-3.31371,0 -6,-2.68629 -6,-6z" font-family="sans-serif" font-weight="normal" font-size="12" text-anchor="start" opacity="0.3"/><text x="644.81539" y="383.09826" transform="" font-family="Arial" font-weight="700" font-size="10" text-anchor="middle">6</text></g><g><path d="M602.66561,320.61324c0,-3.31371 2.68629,-6 6,-6c3.31371,0 6,2.68629 6,6c0,3.31371 -2.68629,6 -6,6c-3.31371,0 -6,-2.68629 -6,-6z" font-family="sans-serif" font-weight="normal" font-size="12" text-anchor="start" opacity="0.3"/><text x="618.66561" y="330.61324" transform="" font-family="Arial" font-weight="700" font-size="10" text-anchor="middle">7</text></g><g><path d="M582.63599,398.13528c0,-3.31371 2.68629,-6 6,-6c3.31371,0 6,2.68629 6,6c0,3.31371 -2.68629,6 -6,6c-3.31371,0 -6,-2.68629 -6,-6z" font-family="sans-serif" font-weight="normal" font-size="12" text-anchor="start" opacity="0.3"/><text x="598.63599" y="408.13528" font-family="Arial" font-weight="700" font-size="10" text-anchor="middle">8</text></g><g><path d="M553.14794,404.81182c0,-3.31371 2.68629,-6 6,-6c3.31371,0 6,2.68629 6,6c0,3.31371 -2.68629,6 -6,6c-3.31371,0 -6,-2.68629 -6,-6z" font-family="sans-serif" font-weight="normal" font-size="12" text-anchor="start" opacity="0.3"/><text x="569.14794" y="414.81182" transform="" font-family="Arial" font-weight="700" font-size="10" text-anchor="middle">9</text></g><g><path d="M569.28291,319.68595c0,-3.31371 2.68629,-6 6,-6c3.31371,0 6,2.68629 6,6c0,3.31371 -2.68629,6 -6,6c-3.31371,0 -6,-2.68629 -6,-6z" font-family="sans-serif" font-weight="normal" font-size="12" text-anchor="start" opacity="0.3"/><text x="585.28291" y="329.68595" transform="" font-family="Arial" font-weight="700" font-size="10" text-anchor="middle">10</text></g><g><path d="M600.81101,254.03331c0,-3.31371 2.68629,-6 6,-6c3.31371,0 6,2.68629 6,6c0,3.31371 -2.68629,6 -6,6c-3.31371,0 -6,-2.68629 -6,-6z" font-family="sans-serif" font-weight="normal" font-size="12" text-anchor="start" opacity="0.3"/><text x="616.81101" y="264.03331" font-family="Arial" font-weight="700" font-size="10" text-anchor="middle">11</text></g><g><path d="M625.29166,290.1979c0,-3.31371 2.68629,-6 6,-6c3.31371,0 6,2.68629 6,6c0,3.31371 -2.68629,6 -6,6c-3.31371,0 -6,-2.68629 -6,-6z" font-family="sans-serif" font-weight="normal" font-size="12" text-anchor="start" opacity="0.3"/><text x="641.29166" y="300.1979" transform="" font-family="Arial" font-weight="700" font-size="10" text-anchor="middle">12</text></g><g><path d="M642.35392,330.07168c0,-3.31371 2.68629,-6 6,-6c3.31371,0 6,2.68629 6,6c0,3.31371 -2.68629,6 -6,6c-3.31371,0 -6,-2.68629 -6,-6z" font-family="sans-serif" font-weight="normal" font-size="12" text-anchor="start" opacity="0.3"/><text x="658.35392" y="340.07168" transform="" font-family="Arial" font-weight="700" font-size="10" text-anchor="middle">13</text></g><g><path d="M665.72181,350.84313c0,-3.31371 2.68629,-6 6,-6c3.31371,0 6,2.68629 6,6c0,3.31371 -2.68629,6 -6,6c-3.31371,0 -6,-2.68629 -6,-6z" font-family="sans-serif" font-weight="normal" font-size="12" text-anchor="start" opacity="0.3"/><text x="681.72181" y="360.84313" transform="" font-family="Arial" font-weight="700" font-size="10" text-anchor="middle">14</text></g><g><path d="M688.90424,245.13126c0,-3.31371 2.68629,-6 6,-6c3.31371,0 6,2.68629 6,6c0,3.31371 -2.68629,6 -6,6c-3.31371,0 -6,-2.68629 -6,-6z" font-family="sans-serif" font-weight="normal" font-size="12" text-anchor="start" opacity="0.3"/><text x="704.90424" y="255.13126" transform="" font-family="Arial" font-weight="700" font-size="10" text-anchor="middle">15</text></g><g><path d="M702.25731,214.15954c0,-3.31371 2.68629,-6 6,-6c3.31371,0 6,2.68629 6,6c0,3.31371 -2.68629,6 -6,6c-3.31371,0 -6,-2.68629 -6,-6z" font-family="sans-serif" font-weight="normal" font-size="12" text-anchor="start" opacity="0.3"/><text x="718.25731" y="224.15954" font-family="Arial" font-weight="700" font-size="10" text-anchor="middle">16</text></g><g><path d="M717.65045,231.59273c0,-3.31371 2.68629,-6 6,-6c3.31371,0 6,2.68629 6,6c0,3.31371 -2.68629,6 -6,6c-3.31371,0 -6,-2.68629 -6,-6z" font-family="sans-serif" font-weight="normal" font-size="12" text-anchor="start" opacity="0.3"/><text x="733.65045" y="241.59273" transform="" font-family="Arial" font-weight="700" font-size="10" text-anchor="middle">17</text></g></g><g fill="#ff0000"><g><path d="M873.62181,254.03331c0,-3.31371 2.68629,-6 6,-6c3.31371,0 6,2.68629 6,6c0,3.31371 -2.68629,6 -6,6c-3.31371,0 -6,-2.68629 -6,-6z" font-family="sans-serif" font-weight="normal" font-size="12" text-anchor="start" opacity="0.3"/><text x="889.62181" y="264.03331" font-family="Arial" font-weight="700" font-size="10" text-anchor="middle">1</text></g><g><path d="M826.70058,270.72466c0,-3.31371 2.68629,-6 6,-6c3.31371,0 6,2.68629 6,6c0,3.31371 -2.68629,6 -6,6c-3.31371,0 -6,-2.68629 -6,-6z" font-family="sans-serif" font-weight="normal" font-size="12" text-anchor="start" opacity="0.3"/><text x="842.70058" y="280.72466" font-family="Arial" font-weight="700" font-size="10" text-anchor="middle">2</text></g><g><path d="M792.76151,281.66677c0,-3.31371 2.68629,-6 6,-6c3.31371,0 6,2.68629 6,6c0,3.31371 -2.68629,6 -6,6c-3.31371,0 -6,-2.68629 -6,-6z" font-family="sans-serif" font-weight="normal" font-size="12" text-anchor="start" opacity="0.3"/><text x="808.76151" y="291.66677" transform="" font-family="Arial" font-weight="700" font-size="10" text-anchor="middle">3</text></g><g><path d="M772.54643,310.41298c0,-3.31371 2.68629,-6 6,-6c3.31371,0 6,2.68629 6,6c0,3.31371 -2.68629,6 -6,6c-3.31371,0 -6,-2.68629 -6,-6z" font-family="sans-serif" font-weight="normal" font-size="12" text-anchor="start" opacity="0.3"/><text x="788.54643" y="320.41298" transform="" font-family="Arial" font-weight="700" font-size="10" text-anchor="middle">4</text></g><g><path d="M827.25696,314.30762c0,-3.31371 2.68629,-6 6,-6c3.31371,0 6,2.68629 6,6c0,3.31371 -2.68629,6 -6,6c-3.31371,0 -6,-2.68629 -6,-6z" font-family="sans-serif" font-weight="normal" font-size="12" text-anchor="start" opacity="0.3"/><text x="843.25696" y="324.30762" transform="" font-family="Arial" font-weight="700" font-size="10" text-anchor="middle">5</text></g><g><path d="M783.674,336.74821c0,-3.31371 2.68629,-6 6,-6c3.31371,0 6,2.68629 6,6c0,3.31371 -2.68629,6 -6,6c-3.31371,0 -6,-2.68629 -6,-6z" font-family="sans-serif" font-weight="normal" font-size="12" text-anchor="start" opacity="0.3"/><text x="799.674" y="346.74821" font-family="Arial" font-weight="700" font-size="10" text-anchor="middle">6</text></g><g><path d="M768.28087,370.68729c0,-3.31371 2.68629,-6 6,-6c3.31371,0 6,2.68629 6,6c0,3.31371 -2.68629,6 -6,6c-3.31371,0 -6,-2.68629 -6,-6z" font-family="sans-serif" font-weight="normal" font-size="12" text-anchor="start" opacity="0.3"/><text x="784.28087" y="380.68729" transform="" font-family="Arial" font-weight="700" font-size="10" text-anchor="middle">7</text></g><g><path d="M793.31789,373.65464c0,-3.31371 2.68629,-6 6,-6c3.31371,0 6,2.68629 6,6c0,3.31371 -2.68629,6 -6,6c-3.31371,0 -6,-2.68629 -6,-6z" font-family="sans-serif" font-weight="normal" font-size="12" text-anchor="start" opacity="0.3"/><text x="809.31789" y="383.65464" transform="" font-family="Arial" font-weight="700" font-size="10" text-anchor="middle">8</text></g><g><path d="M817.24215,374.95285c0,-3.31371 2.68629,-6 6,-6c3.31371,0 6,2.68629 6,6c0,3.31371 -2.68629,6 -6,6c-3.31371,0 -6,-2.68629 -6,-6z" font-family="sans-serif" font-weight="normal" font-size="12" text-anchor="start" opacity="0.3"/><text x="833.24215" y="384.95285" transform="" font-family="Arial" font-weight="700" font-size="10" text-anchor="middle">9</text></g><g><path d="M770.13546,405.92458c0,-3.31371 2.68629,-6 6,-6c3.31371,0 6,2.68629 6,6c0,3.31371 -2.68629,6 -6,6c-3.31371,0 -6,-2.68629 -6,-6z" font-family="sans-serif" font-weight="normal" font-size="12" text-anchor="start" opacity="0.3"/><text x="786.13546" y="415.92458" font-family="Arial" font-weight="700" font-size="10" text-anchor="middle">10</text></g><g><path d="M733.4145,363.45437c0,-3.31371 2.68629,-6 6,-6c3.31371,0 6,2.68629 6,6c0,3.31371 -2.68629,6 -6,6c-3.31371,0 -6,-2.68629 -6,-6z" font-family="sans-serif" font-weight="normal" font-size="12" text-anchor="start" opacity="0.3"/><text x="749.4145" y="373.45437" font-family="Arial" font-weight="700" font-size="10" text-anchor="middle">11</text></g><g><path d="M733.78541,330.25713c0,-3.31371 2.68629,-6 6,-6c3.31371,0 6,2.68629 6,6c0,3.31371 -2.68629,6 -6,6c-3.31371,0 -6,-2.68629 -6,-6z" font-family="sans-serif" font-weight="normal" font-size="12" text-anchor="start" opacity="0.3"/><text x="749.78541" y="340.25713" transform="" font-family="Arial" font-weight="700" font-size="10" text-anchor="middle">12</text></g><g><path d="M744.91298,288.89968c0,-3.31371 2.68629,-6 6,-6c3.31371,0 6,2.68629 6,6c0,3.31371 -2.68629,6 -6,6c-3.31371,0 -6,-2.68629 -6,-6z" font-family="sans-serif" font-weight="normal" font-size="12" text-anchor="start" opacity="0.3"/><text x="760.91298" y="298.89968" transform="" font-family="Arial" font-weight="700" font-size="10" text-anchor="middle">13</text></g><g><path d="M748.06579,263.86266c0,-3.31371 2.68629,-6 6,-6c3.31371,0 6,2.68629 6,6c0,3.31371 -2.68629,6 -6,6c-3.31371,0 -6,-2.68629 -6,-6z" font-family="sans-serif" font-weight="normal" font-size="12" text-anchor="start" opacity="0.3"/><text x="764.06579" y="273.86266" font-family="Arial" font-weight="700" font-size="10" text-anchor="middle">14</text></g><g><path d="M768.46633,242.90575c0,-3.31371 2.68629,-6 6,-6c3.31371,0 6,2.68629 6,6c0,3.31371 -2.68629,6 -6,6c-3.31371,0 -6,-2.68629 -6,-6z" font-family="sans-serif" font-weight="normal" font-size="12" text-anchor="start" opacity="0.3"/><text x="784.46633" y="252.90575" transform="" font-family="Arial" font-weight="700" font-size="10" text-anchor="middle">15</text></g></g><g fill="#ff7f00"><g><path d="M861.75241,190.04982c0,-3.31371 2.68629,-6 6,-6c3.31371,0 6,2.68629 6,6c0,3.31371 -2.68629,6 -6,6c-3.31371,0 -6,-2.68629 -6,-6z" font-family="sans-serif" font-weight="normal" font-size="12" text-anchor="start" opacity="0.3"/><text x="877.75241" y="200.04982" transform="" font-family="Arial" font-weight="700" font-size="10" text-anchor="middle">1</text></g><g><path d="M849.14117,209.89397c0,-3.31371 2.68629,-6 6,-6c3.31371,0 6,2.68629 6,6c0,3.31371 -2.68629,6 -6,6c-3.31371,0 -6,-2.68629 -6,-6z" font-family="sans-serif" font-weight="normal" font-size="12" text-anchor="start" opacity="0.3"/><text x="865.14117" y="219.89397" transform="" font-family="Arial" font-weight="700" font-size="10" text-anchor="middle">2</text></g><g><path d="M807.04188,227.51262c0,-3.31371 2.68629,-6 6,-6c3.31371,0 6,2.68629 6,6c0,3.31371 -2.68629,6 -6,6c-3.31371,0 -6,-2.68629 -6,-6z" font-family="sans-serif" font-weight="normal" font-size="12" text-anchor="start" opacity="0.3"/><text x="823.04188" y="237.51262" transform="" font-family="Arial" font-weight="700" font-size="10" text-anchor="middle">3</text></g><g><path d="M818.16945,192.83171c0,-3.31371 2.68629,-6 6,-6c3.31371,0 6,2.68629 6,6c0,3.31371 -2.68629,6 -6,6c-3.31371,0 -6,-2.68629 -6,-6z" font-family="sans-serif" font-weight="normal" font-size="12" text-anchor="start" opacity="0.3"/><text x="834.16945" y="202.83171" transform="" font-family="Arial" font-weight="700" font-size="10" text-anchor="middle">4</text></g><g><path d="M849.32663,179.29317c0,-3.31371 2.68629,-6 6,-6c3.31371,0 6,2.68629 6,6c0,3.31371 -2.68629,6 -6,6c-3.31371,0 -6,-2.68629 -6,-6z" font-family="sans-serif" font-weight="normal" font-size="12" text-anchor="start" opacity="0.3"/><text x="865.32663" y="189.29317" transform="" font-family="Arial" font-weight="700" font-size="10" text-anchor="middle">5</text></g></g><g fill="#ff7f00"><g><path d="M1004.92708,254.03331c0,-3.31371 2.68629,-6 6,-6c3.31371,0 6,2.68629 6,6c0,3.31371 -2.68629,6 -6,6c-3.31371,0 -6,-2.68629 -6,-6z" font-family="sans-serif" font-weight="normal" font-size="12" text-anchor="start" opacity="0.3"/><text x="1020.92708" y="264.03331" transform="" font-family="Arial" font-weight="700" font-size="10" text-anchor="middle">1</text></g><g><path d="M958.00585,270.72466c0,-3.31371 2.68629,-6 6,-6c3.31371,0 6,2.68629 6,6c0,3.31371 -2.68629,6 -6,6c-3.31371,0 -6,-2.68629 -6,-6z" font-family="sans-serif" font-weight="normal" font-size="12" text-anchor="start" opacity="0.3"/><text x="974.00585" y="280.72466" font-family="Arial" font-weight="700" font-size="10" text-anchor="middle">2</text></g><g><path d="M924.06677,281.66677c0,-3.31371 2.68629,-6 6,-6c3.31371,0 6,2.68629 6,6c0,3.31371 -2.68629,6 -6,6c-3.31371,0 -6,-2.68629 -6,-6z" font-family="sans-serif" font-weight="normal" font-size="12" text-anchor="start" opacity="0.3"/><text x="940.06677" y="291.66677" font-family="Arial" font-weight="700" font-size="10" text-anchor="middle">3</text></g><g><path d="M903.8517,310.41298c0,-3.31371 2.68629,-6 6,-6c3.31371,0 6,2.68629 6,6c0,3.31371 -2.68629,6 -6,6c-3.31371,0 -6,-2.68629 -6,-6z" font-family="sans-serif" font-weight="normal" font-size="12" text-anchor="start" opacity="0.3"/><text x="919.8517" y="320.41298" transform="" font-family="Arial" font-weight="700" font-size="10" text-anchor="middle">4</text></g><g><path d="M958.56223,314.30762c0,-3.31371 2.68629,-6 6,-6c3.31371,0 6,2.68629 6,6c0,3.31371 -2.68629,6 -6,6c-3.31371,0 -6,-2.68629 -6,-6z" font-family="sans-serif" font-weight="normal" font-size="12" text-anchor="start" opacity="0.3"/><text x="974.56223" y="324.30762" transform="" font-family="Arial" font-weight="700" font-size="10" text-anchor="middle">5</text></g><g><path d="M914.97926,336.74821c0,-3.31371 2.68629,-6 6,-6c3.31371,0 6,2.68629 6,6c0,3.31371 -2.68629,6 -6,6c-3.31371,0 -6,-2.68629 -6,-6z" font-family="sans-serif" font-weight="normal" font-size="12" text-anchor="start" opacity="0.3"/><text x="930.97926" y="346.74821" font-family="Arial" font-weight="700" font-size="10" text-anchor="middle">6</text></g><g><path d="M899.58613,370.68729c0,-3.31371 2.68629,-6 6,-6c3.31371,0 6,2.68629 6,6c0,3.31371 -2.68629,6 -6,6c-3.31371,0 -6,-2.68629 -6,-6z" font-family="sans-serif" font-weight="normal" font-size="12" text-anchor="start" opacity="0.3"/><text x="915.58613" y="380.68729" font-family="Arial" font-weight="700" font-size="10" text-anchor="middle">7</text></g><g><path d="M924.62315,373.65464c0,-3.31371 2.68629,-6 6,-6c3.31371,0 6,2.68629 6,6c0,3.31371 -2.68629,6 -6,6c-3.31371,0 -6,-2.68629 -6,-6z" font-family="sans-serif" font-weight="normal" font-size="12" text-anchor="start" opacity="0.3"/><text x="940.62315" y="383.65464" transform="" font-family="Arial" font-weight="700" font-size="10" text-anchor="middle">8</text></g><g><path d="M948.54742,374.95285c0,-3.31371 2.68629,-6 6,-6c3.31371,0 6,2.68629 6,6c0,3.31371 -2.68629,6 -6,6c-3.31371,0 -6,-2.68629 -6,-6z" font-family="sans-serif" font-weight="normal" font-size="12" text-anchor="start" opacity="0.3"/><text x="964.54742" y="384.95285" transform="" font-family="Arial" font-weight="700" font-size="10" text-anchor="middle">9</text></g><g><path d="M901.44073,405.92458c0,-3.31371 2.68629,-6 6,-6c3.31371,0 6,2.68629 6,6c0,3.31371 -2.68629,6 -6,6c-3.31371,0 -6,-2.68629 -6,-6z" font-family="sans-serif" font-weight="normal" font-size="12" text-anchor="start" opacity="0.3"/><text x="917.44073" y="415.92458" transform="" font-family="Arial" font-weight="700" font-size="10" text-anchor="middle">10</text></g><g><path d="M864.71976,363.45437c0,-3.31371 2.68629,-6 6,-6c3.31371,0 6,2.68629 6,6c0,3.31371 -2.68629,6 -6,6c-3.31371,0 -6,-2.68629 -6,-6z" font-family="sans-serif" font-weight="normal" font-size="12" text-anchor="start" opacity="0.3"/><text x="880.71976" y="373.45437" transform="" font-family="Arial" font-weight="700" font-size="10" text-anchor="middle">11</text></g><g><path d="M865.09068,330.25713c0,-3.31371 2.68629,-6 6,-6c3.31371,0 6,2.68629 6,6c0,3.31371 -2.68629,6 -6,6c-3.31371,0 -6,-2.68629 -6,-6z" font-family="sans-serif" font-weight="normal" font-size="12" text-anchor="start" opacity="0.3"/><text x="881.09068" y="340.25713" transform="" font-family="Arial" font-weight="700" font-size="10" text-anchor="middle">12</text></g><g><path d="M876.21825,288.89968c0,-3.31371 2.68629,-6 6,-6c3.31371,0 6,2.68629 6,6c0,3.31371 -2.68629,6 -6,6c-3.31371,0 -6,-2.68629 -6,-6z" font-family="sans-serif" font-weight="normal" font-size="12" text-anchor="start" opacity="0.3"/><text x="892.21825" y="298.89968" transform="" font-family="Arial" font-weight="700" font-size="10" text-anchor="middle">13</text></g><g><path d="M879.37106,263.86266c0,-3.31371 2.68629,-6 6,-6c3.31371,0 6,2.68629 6,6c0,3.31371 -2.68629,6 -6,6c-3.31371,0 -6,-2.68629 -6,-6z" font-family="sans-serif" font-weight="normal" font-size="12" text-anchor="start" opacity="0.3"/><text x="895.37106" y="273.86266" font-family="Arial" font-weight="700" font-size="10" text-anchor="middle">14</text></g><g><path d="M899.77159,242.90575c0,-3.31371 2.68629,-6 6,-6c3.31371,0 6,2.68629 6,6c0,3.31371 -2.68629,6 -6,6c-3.31371,0 -6,-2.68629 -6,-6z" font-family="sans-serif" font-weight="normal" font-size="12" text-anchor="start" opacity="0.3"/><text x="915.77159" y="252.90575" transform="" font-family="Arial" font-weight="700" font-size="10" text-anchor="middle">15</text></g></g></g><g stroke-miterlimit="10"><g fill="#ff0000"><g><path d="M501.21931,584.70745c0,-3.31371 2.68629,-6 6,-6c3.31371,0 6,2.68629 6,6c0,3.31371 -2.68629,6 -6,6c-3.31371,0 -6,-2.68629 -6,-6z" font-family="sans-serif" font-weight="normal" font-size="12" text-anchor="start" opacity="0.3"/><text x="517.21931" y="594.70745" transform="" font-family="Arial" font-weight="700" font-size="10" text-anchor="middle">1</text></g><g><path d="M420.72992,604.73707c0,-3.31371 2.68629,-6 6,-6c3.31371,0 6,2.68629 6,6c0,3.31371 -2.68629,6 -6,6c-3.31371,0 -6,-2.68629 -6,-6z" font-family="sans-serif" font-weight="normal" font-size="12" text-anchor="start" opacity="0.3"/><text x="436.72992" y="614.73707" transform="" font-family="Arial" font-weight="700" font-size="10" text-anchor="middle">2</text></g><g><path d="M319.09816,622.91209c0,-3.31371 2.68629,-6 6,-6c3.31371,0 6,2.68629 6,6c0,3.31371 -2.68629,6 -6,6c-3.31371,0 -6,-2.68629 -6,-6z" font-family="sans-serif" font-weight="normal" font-size="12" text-anchor="start" opacity="0.3"/><text x="335.09816" y="632.91209" font-family="Arial" font-weight="700" font-size="10" text-anchor="middle">3</text></g><g><path d="M269.02412,618.64652c0,-3.31371 2.68629,-6 6,-6c3.31371,0 6,2.68629 6,6c0,3.31371 -2.68629,6 -6,6c-3.31371,0 -6,-2.68629 -6,-6z" font-family="sans-serif" font-weight="normal" font-size="12" text-anchor="start" opacity="0.3"/><text x="285.02412" y="628.64652" transform="" font-family="Arial" font-weight="700" font-size="10" text-anchor="middle">4</text></g><g><path d="M266.61315,573.76535c0,-3.31371 2.68629,-6 6,-6c3.31371,0 6,2.68629 6,6c0,3.31371 -2.68629,6 -6,6c-3.31371,0 -6,-2.68629 -6,-6z" font-family="sans-serif" font-weight="normal" font-size="12" text-anchor="start" opacity="0.3"/><text x="282.61315" y="583.76535" font-family="Arial" font-weight="700" font-size="10" text-anchor="middle">5</text></g><g><path d="M287.94098,545.94643c0,-3.31371 2.68629,-6 6,-6c3.31371,0 6,2.68629 6,6c0,3.31371 -2.68629,6 -6,6c-3.31371,0 -6,-2.68629 -6,-6z" font-family="sans-serif" font-weight="normal" font-size="12" text-anchor="start" opacity="0.3"/><text x="303.94098" y="555.94643" transform="" font-family="Arial" font-weight="700" font-size="10" text-anchor="middle">6</text></g><g><path d="M335.41859,498.09791c0,-3.31371 2.68629,-6 6,-6c3.31371,0 6,2.68629 6,6c0,3.31371 -2.68629,6 -6,6c-3.31371,0 -6,-2.68629 -6,-6z" font-family="sans-serif" font-weight="normal" font-size="12" text-anchor="start" opacity="0.3"/><text x="351.41859" y="508.09791" transform="" font-family="Arial" font-weight="700" font-size="10" text-anchor="middle">7</text></g><g><path d="M363.60842,467.68256c0,-3.31371 2.68629,-6 6,-6c3.31371,0 6,2.68629 6,6c0,3.31371 -2.68629,6 -6,6c-3.31371,0 -6,-2.68629 -6,-6z" font-family="sans-serif" font-weight="normal" font-size="12" text-anchor="start" opacity="0.3"/><text x="379.60842" y="477.68256" transform="" font-family="Arial" font-weight="700" font-size="10" text-anchor="middle">8</text></g><g><path d="M391.98371,429.47792c0,-3.31371 2.68629,-6 6,-6c3.31371,0 6,2.68629 6,6c0,3.31371 -2.68629,6 -6,6c-3.31371,0 -6,-2.68629 -6,-6z" font-family="sans-serif" font-weight="normal" font-size="12" text-anchor="start" opacity="0.3"/><text x="407.98371" y="439.47792" transform="" font-family="Arial" font-weight="700" font-size="10" text-anchor="middle">9</text></g><g><path d="M344.13518,435.0417c0,-3.31371 2.68629,-6 6,-6c3.31371,0 6,2.68629 6,6c0,3.31371 -2.68629,6 -6,6c-3.31371,0 -6,-2.68629 -6,-6z" font-family="sans-serif" font-weight="normal" font-size="12" text-anchor="start" opacity="0.3"/><text x="360.13518" y="445.0417" transform="" font-family="Arial" font-weight="700" font-size="10" text-anchor="middle">10</text></g><g><path d="M295.91574,428.36517c0,-3.31371 2.68629,-6 6,-6c3.31371,0 6,2.68629 6,6c0,3.31371 -2.68629,6 -6,6c-3.31371,0 -6,-2.68629 -6,-6z" font-family="sans-serif" font-weight="normal" font-size="12" text-anchor="start" opacity="0.3"/><text x="311.91574" y="438.36517" font-family="Arial" font-weight="700" font-size="10" text-anchor="middle">11</text></g><g><path d="M366.57577,382.18577c0,-3.31371 2.68629,-6 6,-6c3.31371,0 6,2.68629 6,6c0,3.31371 -2.68629,6 -6,6c-3.31371,0 -6,-2.68629 -6,-6z" font-family="sans-serif" font-weight="normal" font-size="12" text-anchor="start" opacity="0.3"/><text x="382.57577" y="392.18577" font-family="Arial" font-weight="700" font-size="10" text-anchor="middle">12</text></g><g><path d="M441.68684,405.73912c0,-3.31371 2.68629,-6 6,-6c3.31371,0 6,2.68629 6,6c0,3.31371 -2.68629,6 -6,6c-3.31371,0 -6,-2.68629 -6,-6z" font-family="sans-serif" font-weight="normal" font-size="12" text-anchor="start" opacity="0.3"/><text x="457.68684" y="415.73912" transform="" font-family="Arial" font-weight="700" font-size="10" text-anchor="middle">13</text></g><g><path d="M340.24054,566.53243c0,-3.31371 2.68629,-6 6,-6c3.31371,0 6,2.68629 6,6c0,3.31371 -2.68629,6 -6,6c-3.31371,0 -6,-2.68629 -6,-6z" font-family="sans-serif" font-weight="normal" font-size="12" text-anchor="start" opacity="0.3"/><text x="356.24054" y="576.53243" font-family="Arial" font-weight="700" font-size="10" text-anchor="middle">14</text></g><g><path d="M379.37247,561.33957c0,-3.31371 2.68629,-6 6,-6c3.31371,0 6,2.68629 6,6c0,3.31371 -2.68629,6 -6,6c-3.31371,0 -6,-2.68629 -6,-6z" font-family="sans-serif" font-weight="normal" font-size="12" text-anchor="start" opacity="0.3"/><text x="395.37247" y="571.33957" transform="" font-family="Arial" font-weight="700" font-size="10" text-anchor="middle">15</text></g><g><path d="M418.68987,559.85589c0,-3.31371 2.68629,-6 6,-6c3.31371,0 6,2.68629 6,6c0,3.31371 -2.68629,6 -6,6c-3.31371,0 -6,-2.68629 -6,-6z" font-family="sans-serif" font-weight="normal" font-size="12" text-anchor="start" opacity="0.3"/><text x="434.68987" y="569.85589" transform="" font-family="Arial" font-weight="700" font-size="10" text-anchor="middle">16</text></g><g><path d="M461.16007,557.63038c0,-3.31371 2.68629,-6 6,-6c3.31371,0 6,2.68629 6,6c0,3.31371 -2.68629,6 -6,6c-3.31371,0 -6,-2.68629 -6,-6z" font-family="sans-serif" font-weight="normal" font-size="12" text-anchor="start" opacity="0.3"/><text x="477.16007" y="567.63038" transform="" font-family="Arial" font-weight="700" font-size="10" text-anchor="middle">17</text></g></g><g fill="#ff7f00"><g><path d="M694.46802,518.12752c0,-3.31371 2.68629,-6 6,-6c3.31371,0 6,2.68629 6,6c0,3.31371 -2.68629,6 -6,6c-3.31371,0 -6,-2.68629 -6,-6z" font-family="sans-serif" font-weight="normal" font-size="12" text-anchor="start" opacity="0.3"/><text x="710.46802" y="528.12752" transform="" font-family="Arial" font-weight="700" font-size="10" text-anchor="middle">1</text></g><g><path d="M631.78274,623.83939c0,-3.31371 2.68629,-6 6,-6c3.31371,0 6,2.68629 6,6c0,3.31371 -2.68629,6 -6,6c-3.31371,0 -6,-2.68629 -6,-6z" font-family="sans-serif" font-weight="normal" font-size="12" text-anchor="start" opacity="0.3"/><text x="647.78274" y="633.83939" transform="" font-family="Arial" font-weight="700" font-size="10" text-anchor="middle">2</text></g><g><path d="M518.28157,583.96561c0,-3.31371 2.68629,-6 6,-6c3.31371,0 6,2.68629 6,6c0,3.31371 -2.68629,6 -6,6c-3.31371,0 -6,-2.68629 -6,-6z" font-family="sans-serif" font-weight="normal" font-size="12" text-anchor="start" opacity="0.3"/><text x="534.28157" y="593.96561" font-family="Arial" font-weight="700" font-size="10" text-anchor="middle">3</text></g><g><path d="M540.90762,453.7731c0,-3.31371 2.68629,-6 6,-6c3.31371,0 6,2.68629 6,6c0,3.31371 -2.68629,6 -6,6c-3.31371,0 -6,-2.68629 -6,-6z" font-family="sans-serif" font-weight="normal" font-size="12" text-anchor="start" opacity="0.3"/><text x="556.90762" y="463.7731" transform="" font-family="Arial" font-weight="700" font-size="10" text-anchor="middle">4</text></g><g><path d="M578.9268,419.64857c0,-3.31371 2.68629,-6 6,-6c3.31371,0 6,2.68629 6,6c0,3.31371 -2.68629,6 -6,6c-3.31371,0 -6,-2.68629 -6,-6z" font-family="sans-serif" font-weight="normal" font-size="12" text-anchor="start" opacity="0.3"/><text x="594.9268" y="429.64857" transform="" font-family="Arial" font-weight="700" font-size="10" text-anchor="middle">5</text></g><g><path d="M630.85544,405.92458c0,-3.31371 2.68629,-6 6,-6c3.31371,0 6,2.68629 6,6c0,3.31371 -2.68629,6 -6,6c-3.31371,0 -6,-2.68629 -6,-6z" font-family="sans-serif" font-weight="normal" font-size="12" text-anchor="start" opacity="0.3"/><text x="646.85544" y="415.92458" transform="" font-family="Arial" font-weight="700" font-size="10" text-anchor="middle">6</text></g><g><path d="M673.14019,441.16186c0,-3.31371 2.68629,-6 6,-6c3.31371,0 6,2.68629 6,6c0,3.31371 -2.68629,6 -6,6c-3.31371,0 -6,-2.68629 -6,-6z" font-family="sans-serif" font-weight="normal" font-size="12" text-anchor="start" opacity="0.3"/><text x="689.14019" y="451.16186" transform="" font-family="Arial" font-weight="700" font-size="10" text-anchor="middle">7</text></g></g><g fill="#ff7f00"><g><path d="M651.99781,486.04304c0,-3.31371 2.68629,-6 6,-6c3.31371,0 6,2.68629 6,6c0,3.31371 -2.68629,6 -6,6c-3.31371,0 -6,-2.68629 -6,-6z" font-family="sans-serif" font-weight="normal" font-size="12" text-anchor="start" opacity="0.3"/><text x="667.99781" y="496.04304" transform="" font-family="Arial" font-weight="700" font-size="10" text-anchor="middle">1</text></g><g><path d="M622.50977,468.79532c0,-3.31371 2.68629,-6 6,-6c3.31371,0 6,2.68629 6,6c0,3.31371 -2.68629,6 -6,6c-3.31371,0 -6,-2.68629 -6,-6z" font-family="sans-serif" font-weight="normal" font-size="12" text-anchor="start" opacity="0.3"/><text x="638.50977" y="478.79532" transform="" font-family="Arial" font-weight="700" font-size="10" text-anchor="middle">2</text></g><g><path d="M586.15972,488.63948c0,-3.31371 2.68629,-6 6,-6c3.31371,0 6,2.68629 6,6c0,3.31371 -2.68629,6 -6,6c-3.31371,0 -6,-2.68629 -6,-6z" font-family="sans-serif" font-weight="normal" font-size="12" text-anchor="start" opacity="0.3"/><text x="602.15972" y="498.63948" font-family="Arial" font-weight="700" font-size="10" text-anchor="middle">3</text></g><g><path d="M554.44616,563.19416c0,-3.31371 2.68629,-6 6,-6c3.31371,0 6,2.68629 6,6c0,3.31371 -2.68629,6 -6,6c-3.31371,0 -6,-2.68629 -6,-6z" font-family="sans-serif" font-weight="normal" font-size="12" text-anchor="start" opacity="0.3"/><text x="570.44616" y="573.19416" font-family="Arial" font-weight="700" font-size="10" text-anchor="middle">4</text></g><g><path d="M603.22199,568.0161c0,-3.31371 2.68629,-6 6,-6c3.31371,0 6,2.68629 6,6c0,3.31371 -2.68629,6 -6,6c-3.31371,0 -6,-2.68629 -6,-6z" font-family="sans-serif" font-weight="normal" font-size="12" text-anchor="start" opacity="0.3"/><text x="619.22199" y="578.0161" transform="" font-family="Arial" font-weight="700" font-size="10" text-anchor="middle">5</text></g></g><g fill="#007fff"><g><path d="M859.89782,404.4409c0,-3.31371 2.68629,-6 6,-6c3.31371,0 6,2.68629 6,6c0,3.31371 -2.68629,6 -6,6c-3.31371,0 -6,-2.68629 -6,-6z" font-family="sans-serif" font-weight="normal" font-size="12" text-anchor="start" opacity="0.3"/><text x="875.89782" y="414.4409" transform="" font-family="Arial" font-weight="700" font-size="10" text-anchor="middle">1</text></g><g><path d="M832.63528,467.4971c0,-3.31371 2.68629,-6 6,-6c3.31371,0 6,2.68629 6,6c0,3.31371 -2.68629,6 -6,6c-3.31371,0 -6,-2.68629 -6,-6z" font-family="sans-serif" font-weight="normal" font-size="12" text-anchor="start" opacity="0.3"/><text x="848.63528" y="477.4971" transform="" font-family="Arial" font-weight="700" font-size="10" text-anchor="middle">2</text></g><g><path d="M807.04188,539.82627c0,-3.31371 2.68629,-6 6,-6c3.31371,0 6,2.68629 6,6c0,3.31371 -2.68629,6 -6,6c-3.31371,0 -6,-2.68629 -6,-6z" font-family="sans-serif" font-weight="normal" font-size="12" text-anchor="start" opacity="0.3"/><text x="823.04188" y="549.82627" transform="" font-family="Arial" font-weight="700" font-size="10" text-anchor="middle">3</text></g><g><path d="M791.46329,598.61691c0,-3.31371 2.68629,-6 6,-6c3.31371,0 6,2.68629 6,6c0,3.31371 -2.68629,6 -6,6c-3.31371,0 -6,-2.68629 -6,-6z" font-family="sans-serif" font-weight="normal" font-size="12" text-anchor="start" opacity="0.3"/><text x="807.46329" y="608.61691" transform="" font-family="Arial" font-weight="700" font-size="10" text-anchor="middle">4</text></g><g><path d="M764.20076,660.00397c0,-3.31371 2.68629,-6 6,-6c3.31371,0 6,2.68629 6,6c0,3.31371 -2.68629,6 -6,6c-3.31371,0 -6,-2.68629 -6,-6z" font-family="sans-serif" font-weight="normal" font-size="12" text-anchor="start" opacity="0.3"/><text x="780.20076" y="670.00397" font-family="Arial" font-weight="700" font-size="10" text-anchor="middle">5</text></g><g><path d="M739.90558,661.85857c0,-3.31371 2.68629,-6 6,-6c3.31371,0 6,2.68629 6,6c0,3.31371 -2.68629,6 -6,6c-3.31371,0 -6,-2.68629 -6,-6z" font-family="sans-serif" font-weight="normal" font-size="12" text-anchor="start" opacity="0.3"/><text x="755.90558" y="671.85857" transform="" font-family="Arial" font-weight="700" font-size="10" text-anchor="middle">6</text></g><g><path d="M743.80022,610.30085c0,-3.31371 2.68629,-6 6,-6c3.31371,0 6,2.68629 6,6c0,3.31371 -2.68629,6 -6,6c-3.31371,0 -6,-2.68629 -6,-6z" font-family="sans-serif" font-weight="normal" font-size="12" text-anchor="start" opacity="0.3"/><text x="759.80022" y="620.30085" font-family="Arial" font-weight="700" font-size="10" text-anchor="middle">7</text></g><g><path d="M773.65919,462.67516c0,-3.31371 2.68629,-6 6,-6c3.31371,0 6,2.68629 6,6c0,3.31371 -2.68629,6 -6,6c-3.31371,0 -6,-2.68629 -6,-6z" font-family="sans-serif" font-weight="normal" font-size="12" text-anchor="start" opacity="0.3"/><text x="789.65919" y="472.67516" font-family="Arial" font-weight="700" font-size="10" text-anchor="middle">8</text></g><g><path d="M731.74536,479.92288c0,-3.31371 2.68629,-6 6,-6c3.31371,0 6,2.68629 6,6c0,3.31371 -2.68629,6 -6,6c-3.31371,0 -6,-2.68629 -6,-6z" font-family="sans-serif" font-weight="normal" font-size="12" text-anchor="start" opacity="0.3"/><text x="747.74536" y="489.92288" font-family="Arial" font-weight="700" font-size="10" text-anchor="middle">9</text></g><g><path d="M715.05401,454.7004c0,-3.31371 2.68629,-6 6,-6c3.31371,0 6,2.68629 6,6c0,3.31371 -2.68629,6 -6,6c-3.31371,0 -6,-2.68629 -6,-6z" font-family="sans-serif" font-weight="normal" font-size="12" text-anchor="start" opacity="0.3"/><text x="731.05401" y="464.7004" transform="" font-family="Arial" font-weight="700" font-size="10" text-anchor="middle">10</text></g><g><path d="M839.31182,371.80004c0,-3.31371 2.68629,-6 6,-6c3.31371,0 6,2.68629 6,6c0,3.31371 -2.68629,6 -6,6c-3.31371,0 -6,-2.68629 -6,-6z" font-family="sans-serif" font-weight="normal" font-size="12" text-anchor="start" opacity="0.3"/><text x="855.31182" y="381.80004" transform="" font-family="Arial" font-weight="700" font-size="10" text-anchor="middle">11</text></g></g><g fill="#ff0000"><g><path d="M1004.92708,382.74215c0,-3.31371 2.68629,-6 6,-6c3.31371,0 6,2.68629 6,6c0,3.31371 -2.68629,6 -6,6c-3.31371,0 -6,-2.68629 -6,-6z" font-family="sans-serif" font-weight="normal" font-size="12" text-anchor="start" opacity="0.3"/><text x="1020.92708" y="392.74215" font-family="Arial" font-weight="700" font-size="10" text-anchor="middle">1</text></g><g><path d="M969.13341,432.07435c0,-3.31371 2.68629,-6 6,-6c3.31371,0 6,2.68629 6,6c0,3.31371 -2.68629,6 -6,6c-3.31371,0 -6,-2.68629 -6,-6z" font-family="sans-serif" font-weight="normal" font-size="12" text-anchor="start" opacity="0.3"/><text x="985.13341" y="442.07435" transform="" font-family="Arial" font-weight="700" font-size="10" text-anchor="middle">2</text></g><g><path d="M934.4525,484.93029c0,-3.31371 2.68629,-6 6,-6c3.31371,0 6,2.68629 6,6c0,3.31371 -2.68629,6 -6,6c-3.31371,0 -6,-2.68629 -6,-6z" font-family="sans-serif" font-weight="normal" font-size="12" text-anchor="start" opacity="0.3"/><text x="950.4525" y="494.93029" font-family="Arial" font-weight="700" font-size="10" text-anchor="middle">3</text></g><g><path d="M976.36633,567.27427c0,-3.31371 2.68629,-6 6,-6c3.31371,0 6,2.68629 6,6c0,3.31371 -2.68629,6 -6,6c-3.31371,0 -6,-2.68629 -6,-6z" font-family="sans-serif" font-weight="normal" font-size="12" text-anchor="start" opacity="0.3"/><text x="992.36633" y="577.27427" font-family="Arial" font-weight="700" font-size="10" text-anchor="middle">4</text></g><g><path d="M947.80558,611.78453c0,-3.31371 2.68629,-6 6,-6c3.31371,0 6,2.68629 6,6c0,3.31371 -2.68629,6 -6,6c-3.31371,0 -6,-2.68629 -6,-6z" font-family="sans-serif" font-weight="normal" font-size="12" text-anchor="start" opacity="0.3"/><text x="963.80558" y="621.78453" transform="" font-family="Arial" font-weight="700" font-size="10" text-anchor="middle">5</text></g><g><path d="M848.95571,608.63172c0,-3.31371 2.68629,-6 6,-6c3.31371,0 6,2.68629 6,6c0,3.31371 -2.68629,6 -6,6c-3.31371,0 -6,-2.68629 -6,-6z" font-family="sans-serif" font-weight="normal" font-size="12" text-anchor="start" opacity="0.3"/><text x="864.95571" y="618.63172" transform="" font-family="Arial" font-weight="700" font-size="10" text-anchor="middle">6</text></g><g><path d="M905.33537,444.31467c0,-3.31371 2.68629,-6 6,-6c3.31371,0 6,2.68629 6,6c0,3.31371 -2.68629,6 -6,6c-3.31371,0 -6,-2.68629 -6,-6z" font-family="sans-serif" font-weight="normal" font-size="12" text-anchor="start" opacity="0.3"/><text x="921.33537" y="454.31467" transform="" font-family="Arial" font-weight="700" font-size="10" text-anchor="middle">7</text></g><g><path d="M962.82779,383.85491c0,-3.31371 2.68629,-6 6,-6c3.31371,0 6,2.68629 6,6c0,3.31371 -2.68629,6 -6,6c-3.31371,0 -6,-2.68629 -6,-6z" font-family="sans-serif" font-weight="normal" font-size="12" text-anchor="start" opacity="0.3"/><text x="978.82779" y="393.85491" transform="" font-family="Arial" font-weight="700" font-size="10" text-anchor="middle">8</text></g></g><g fill="#ff7f00"><g><path d="M926.47775,571.72529c0,-3.31371 2.68629,-6 6,-6c3.31371,0 6,2.68629 6,6c0,3.31371 -2.68629,6 -6,6c-3.31371,0 -6,-2.68629 -6,-6z" font-family="sans-serif" font-weight="normal" font-size="12" text-anchor="start" opacity="0.3"/><text x="942.47775" y="581.72529" font-family="Arial" font-weight="700" font-size="10" text-anchor="middle">1</text></g><g><path d="M923.69586,528.14233c0,-3.31371 2.68629,-6 6,-6c3.31371,0 6,2.68629 6,6c0,3.31371 -2.68629,6 -6,6c-3.31371,0 -6,-2.68629 -6,-6z" font-family="sans-serif" font-weight="normal" font-size="12" text-anchor="start" opacity="0.3"/><text x="939.69586" y="538.14233" transform="" font-family="Arial" font-weight="700" font-size="10" text-anchor="middle">2</text></g><g><path d="M894.39327,561.33957c0,-3.31371 2.68629,-6 6,-6c3.31371,0 6,2.68629 6,6c0,3.31371 -2.68629,6 -6,6c-3.31371,0 -6,-2.68629 -6,-6z" font-family="sans-serif" font-weight="normal" font-size="12" text-anchor="start" opacity="0.3"/><text x="910.39327" y="571.33957" font-family="Arial" font-weight="700" font-size="10" text-anchor="middle">3</text></g><g><path d="M892.53867,599.54421c0,-3.31371 2.68629,-6 6,-6c3.31371,0 6,2.68629 6,6c0,3.31371 -2.68629,6 -6,6c-3.31371,0 -6,-2.68629 -6,-6z" font-family="sans-serif" font-weight="normal" font-size="12" text-anchor="start" opacity="0.3"/><text x="908.53867" y="609.54421" transform="" font-family="Arial" font-weight="700" font-size="10" text-anchor="middle">4</text></g></g></g></g></svg>