<!-- Generator: Adobe Illustrator 19.2.0, SVG Export Plug-In  -->
<svg version="1.1"
	 xmlns="http://www.w3.org/2000/svg" xmlns:xlink="http://www.w3.org/1999/xlink" xmlns:a="http://ns.adobe.com/AdobeSVGViewerExtensions/3.0/"
	 x="0px" y="0px" width="519.9px" height="266.9px" viewBox="0 0 519.9 266.9" enable-background="new 0 0 519.9 266.9"
	 xml:space="preserve">
<defs>
</defs>
<path fill="none" d="M48.1,1C71,1,85.8,10.5,85.8,25c0,9.4-6.2,17.4-16,20.3c11.4,2.6,18.8,12.1,18.8,24c0,16.3-15,26.7-38.2,26.7H0
	V1H48.1z M31.3,37.6h15.1c4.3,0,7.2-2.7,7.2-6.9c0-4.1-2.8-6.6-7.2-6.6H31.3V37.6z M31.3,72.9h15.1c5.8,0,9.6-3,9.6-7.6
	c0-4.2-3.8-6.9-9.6-6.9H31.3V72.9z M197.8,48.4c0,28.2-22,48.9-52.2,48.9S93.4,76.7,93.4,48.4c0-28.2,22-48.4,52.2-48.4
	S197.8,20.3,197.8,48.4z M125.6,48.5c0,13,9.5,22.6,20.3,22.6s19.5-9.6,19.5-22.6s-8.7-22.4-19.5-22.4
	C135,26.2,125.6,35.5,125.6,48.5z M272.6,96l-37.4-48.5V96h-28.6V1h26.3l37.6,48.8V1H299v95H272.6z M378.5,96l-37.4-48.5V96h-28.6V1
	h26.3l37.5,48.8V1h28.5v95H378.5z M449.8,36.5h44.5v23.9h-44.5v11.8H500v23.9h-81.6V1h80.4v23.9h-49V36.5z"/>
<path fill="none" d="M56.8,146.9L52,160.2H20l39.9-94.4H92l38.4,94.4H97l-4.7-13.3H56.8z M74.9,96.9l-10,27.6h19.7L74.9,96.9z
	 M201.2,160.2L164,112v48.2h-28.4V65.8h26.1l37.3,48.5V65.8h28.3v94.4L201.2,160.2L201.2,160.2z M306.4,160.2L269.2,112v48.2h-28.4
	V65.8h26.1l37.3,48.5V65.8h28.3v94.4L306.4,160.2L306.4,160.2z M377.2,89.5v11.6h44.2v23.7h-44.2v11.7H427v23.7h-81.1V65.8h79.9
	v23.7H377.2z M393.5,59.9H372l14.4-25.4l25.6,8.1L393.5,59.9z M470.1,89.5v11.6h44.2v23.7h-44.2v11.7h49.8v23.7h-81.1V65.8h79.9
	v23.7H470.1z"/>
<path fill="none" d="M118.9,155.1c0,17.1-12.2,33.5-28.6,49.9L68,227.3h53.1v37.5H5.8v-30.5L57,181c5.9-6.3,10.7-13.7,10.7-18.7
	s-3.3-7.8-9.6-7.8c-11.2,0-25.7,7.4-40,19L0,138.3c21.1-14.5,42.5-23.2,65.7-23.2C96,115.1,118.9,131.1,118.9,155.1z M268.8,190.9
	c0,48.4-24.2,75.4-67.6,75.4c-43.8,0-67.8-26.9-67.8-75.4c0-48.4,24-75.2,67.8-75.2C244.6,115.8,268.8,142.5,268.8,190.9z
	 M183.5,190.9c0,29.9,4.4,40,17.7,40c13.1,0,17.5-10.1,17.5-40s-4.4-39.8-17.5-39.8C187.9,151.1,183.5,161,183.5,190.9z
	 M302.3,264.8v-109h-25.7v-38.5h74.5v147.6h-48.8V264.8z M498.3,128.2l-18.5,34.1c-8-6.5-17.9-9.7-29.5-9.7
	c-18.9,0-28.6,8.2-28.6,24.6c6.3-6.1,16.2-10.9,30.5-10.9c28.8,0,47.8,19.8,47.8,48.6c0,31.8-23.2,52-57.9,52
	c-41.7,0-66.9-29-66.9-74.3c0-46.9,28.4-77.5,72.2-77.5C465.4,115.1,485.4,120.2,498.3,128.2z M425.8,214.9
	c0,8.8,4.8,13.3,14.5,13.3c9.5,0,14.3-4.4,14.3-13.5c0-8.6-4.6-13-14.1-13C430.9,201.7,425.8,206.1,425.8,214.9z"/>
</svg>
