<svg id="svg" style="display:none;" xmlns="http://www.w3.org/2000/svg" version="1.1" x="0" y="0" width="521.2" height="267.9" viewBox="0 0 521.2 267.9" enable-background="new 0 0 521.15 267.93" xml:space="preserve"><path fill="none" stroke="none" stroke-miterlimit="10" d="M48.8 1.5c22.9 0 37.7 9.5 37.7 24 0 9.4-6.2 17.4-16 20.3 11.4 2.6 18.8 12.1 18.8 24 0 16.3-15 26.7-38.2 26.7H0.7V1.5H48.8zM32 38.1h15.1c4.3 0 7.2-2.7 7.2-6.9 0-4.1-2.8-6.6-7.2-6.6H32V38.1zM32 73.4h15.1c5.8 0 9.6-3 9.6-7.6 0-4.2-3.8-6.9-9.6-6.9H32V73.4zM198.5 48.9c0 28.2-22 48.9-52.2 48.9s-52.2-20.6-52.2-48.9c0-28.2 22-48.4 52.2-48.4S198.5 20.8 198.5 48.9zM126.3 49c0 13 9.5 22.6 20.3 22.6s19.5-9.6 19.5-22.6 -8.7-22.4-19.5-22.4C135.7 26.7 126.3 36 126.3 49zM273.3 96.5l-37.4-48.5v48.5h-28.6V1.5h26.3l37.6 48.8V1.5h28.5v95H273.3zM379.2 96.5l-37.4-48.5v48.5h-28.6V1.5h26.3L377 50.3V1.5h28.5v95H379.2zM450.5 25.3v11.7h44.5v23.9h-44.5v11.8h50.2v23.9h-81.6V1.5h80.4v23.9H450.5z"/><path fill="none" stroke="none" stroke-miterlimit="10" d="M57.5 147.4l-4.8 13.3H20.7l39.9-94.4h32.1l38.4 94.4H97.7l-4.7-13.3H57.5zM75.6 97.4l-10 27.6h19.7L75.6 97.4zM201.9 160.7l-37.2-48.2v48.2h-28.4v-94.4h26.1l37.3 48.5V66.3h28.3v94.4H201.9zM307.1 160.7l-37.2-48.2v48.2h-28.4v-94.4h26.1l37.3 48.5V66.3h28.3v94.4H307.1zM377.9 90v11.6h44.2v23.7h-44.2v11.7h49.8v23.7h-81.1v-94.4h79.9v23.7H377.9zM394.2 60.4h-21.5l14.4-25.4 25.6 8.1L394.2 60.4zM470.8 90v11.6h44.2v23.7h-44.2v11.7h49.8v23.7h-81.1v-94.4h79.9v23.7H470.8z"/><path fill="none" stroke="none" stroke-miterlimit="10" d="M119.6 155.6c0 17.1-12.2 33.5-28.6 49.9l-22.3 22.3h53.1v37.5H6.5V234.8l51.2-53.3c5.9-6.3 10.7-13.7 10.7-18.7S65.1 155 58.8 155c-11.2 0-25.7 7.4-40 19L0.7 138.8c21.1-14.5 42.5-23.2 65.7-23.2C96.7 115.6 119.6 131.6 119.6 155.6zM269.5 191.4c0 48.4-24.2 75.4-67.6 75.4 -43.8 0-67.8-26.9-67.8-75.4 0-48.4 24-75.2 67.8-75.2C245.3 116.3 269.5 143 269.5 191.4zM184.2 191.4c0 29.9 4.4 40 17.7 40 13.1 0 17.5-10.1 17.5-40 0-29.9-4.4-39.8-17.5-39.8C188.6 151.6 184.2 161.5 184.2 191.4zM303 265.3V156.3h-25.7v-38.5h74.5v147.6H303zM499 128.7l-18.5 34.1c-8-6.5-17.9-9.7-29.5-9.7 -18.9 0-28.6 8.2-28.6 24.6 6.3-6.1 16.2-10.9 30.5-10.9 28.8 0 47.8 19.8 47.8 48.6 0 31.8-23.2 52-57.9 52 -41.7 0-66.9-29-66.9-74.3 0-46.9 28.4-77.5 72.2-77.5C466.1 115.6 486.1 120.7 499 128.7zM426.5 215.4c0 8.8 4.8 13.3 14.5 13.3 9.5 0 14.3-4.4 14.3-13.5 0-8.6-4.6-13-14.1-13C431.6 202.2 426.5 206.6 426.5 215.4z"/></svg>